<mxfile host="Electron" agent="Mozilla/5.0 (Windows NT 10.0; Win64; x64) AppleWebKit/537.36 (KHTML, like Gecko) draw.io/25.0.1 Chrome/128.0.6613.186 Electron/32.2.6 Safari/537.36" version="25.0.1">
  <diagram id="Ib9TQcT8DTWy8I6IAeJE" name="Call">
    <mxGraphModel dx="1434" dy="836" grid="1" gridSize="10" guides="1" tooltips="1" connect="1" arrows="1" fold="1" page="1" pageScale="1" pageWidth="850" pageHeight="1100" math="0" shadow="0">
      <root>
        <object label="" mapping="type: functionflow.Flow&#xa;page-element: true&#xa;doc-ref: README.md&#xa;features:&#xa;  container:&#xa;    self: &#xa;      elements:&#xa;        path: 2&#xa;" id="0">
          <mxCell />
        </object>
        <mxCell id="1" parent="0" />
        <object label="Call" mapping="type: functionflow.Call&#xa;features:&#xa;  source: outgoingConnections&#xa;  end: target" id="xk7Y4A1bgm_LZquDNImR-3">
          <mxCell style="edgeStyle=orthogonalEdgeStyle;rounded=0;orthogonalLoop=1;jettySize=auto;html=1;strokeColor=#000000;fontColor=none;noLabel=1;" parent="1" source="start" target="end" edge="1">
            <mxGeometry relative="1" as="geometry" />
          </mxCell>
        </object>
        <object label="Start" mapping="type: Start" id="start">
          <mxCell style="shape=image;verticalLabelPosition=bottom;labelBackgroundColor=default;verticalAlign=top;aspect=fixed;imageAspect=0;image=data:image/png,iVBORw0KGgoAAAANSUhEUgAAAgAAAAIACAYAAAD0eNT6AAAAAXNSR0IArs4c6QAAIABJREFUeAHsXQl8VNX1PjPJZF8hCQGSQNgCJGxZyIoKilhR3FBEBERFcANRlFUWwdqqtVr3XdRqxQVQLIqiYK2t1VZbW9fWpVq3qrX239rWtuefM2ZwCJPJzLx739z33je/X34zmeW+e8/9zvm+e9975xDhAQvAAqZbIJWIehPRSCKaSERHE9EpRHQeEX2biK4horuIaAsRPUZEzxDR80T0BhG9RUSfdfr7NxFxp79/dfqO/OZNInq9oy1pU9qWY8ix5JhybOmD9EX6dEBHH6WvKaYbFf2DBWABWAAWgAWSaYEeHaR5CBGd1kGqtxPRDiJ6iYg+IqL/dSLrzuRt4v/SZ+m7jOFxIpIxXdj+3qntgkLGKmJGxo4HLAALwAKwACzgSgv4iKiciMYT0Vwi+i4R3U9ELxLR/zmQ2FWLjb912OI+IvoOEZ1MRPsRUZkr0YBBwQKwACwAC7jSAn06tsEXtm/ZX9/++mki+gIkv9fphlhFxD/bTy38jog2tqNlTcdphmoi8rsSPRgULAALwAKwgPEWkHPyQkSziOiKjnPjn4LoEyb6WAVB6HsiqkRcicgSsdXWvnuQYTxq0EFYABaABWABR1lAtvCHENFMIrqKiJ4jIlmZhsgIz2bYQubkFx1zdDwRDXYUytBZWAAWgAVggaRbIIuIJrQT/Goi+jERYWVvBsEnIrQ+IaKHiej8jusKMpOOLnQAFoAFYAFYwBgLZHect5dzzHKbG1b3ziX87kTCVx23NMrFhocSUYExKERHYAFYABaABbRbQM7fyznjtR33ywspdEcc+NydNpK5l2sJZLenhYgEG3jAArAALAALuMgCA4nodCLaTER/BeFD8HSBgc+JaFNHPoZKF+EfQ4EFYAFYwDMWkCx0de2jlW19yYiHFTxskAgG/tBxl4dkOAx4xnswUFgAFoAFHGYBOZc/lYjuJCK5+CuRgI/fwG5dYeDPHdkMjyIiuVAUD1gAFoAFYIEkWkACsVzMJWlmJaNcV8Eb78M2KjHwZfsO00MdeSDyk4h/HBoWgAVgAU9ZILcj8G7FFfsQPAaIPrlrRMSA5B7I8ZQnYrCwACwAC9hggTSs9EH2BpB9d7sIoZ0BqYwomMUDFoAFYAFYIAELSAY+uV3vho4ytd0FX3yObX6TMCAJpK5rzy3RmgD28RNYABaABTxpAaklL/ndf+OAFZ9JhIO+mCuAXmv3ZLkjpZ8nPRqDhgVgAVggigVku1Su4Je0rf8B8WO736UYEGzLtStyJwFuK4wSEPARLAALuN8CUj53CRG969KAj1W5uavyZM/Nh+0VDCUlcX/3uzlGCAvAArDA1xaQWu6SWEVqvCMNLwgy2USc7OP/t6MGhVw4KAms8IAFYAFYwHUWyGtPw7uovayuZFdLdtB13PF9qSmcVpTH2YN7c2HTEC45YBT3PqKRy2fux5WnHsSDzz2ch62dzjXfO4FHXHESj7nxNK7dsIAbfnQON25exs0Pr9z917p9DY976sI9/uS98O/Ib+S30oa0NeLyk4JtyzHkWHJMObb0ofiAkVzYOISzB/UO9tGX4necfQ3B5O/bk1idQUSS1AoPWAAWgAUcbwHJw38FEX1hSJA1jpz8GQHO6l8SJNHSQ+q534n785DlR/GI75/Idbcv5KYHl+9B1p3J28T/pc91GxbyiMtO5CHLjuJ+c/bn0sn1XDh2cHCsMmbgoUshLHcQrG+/i6DU8d6PAcACsIAnLbAvEW1pr8UuW5yeD/b+QGpwhVw8fkRw5TxkyZE88sq53PjAEseRuyrB0Xj/Eh75g5NZbFF+/L5cNL6GsweWsi+Q4nm8dPiMJBm6qf102XBPRhAMGhaABRxlATm/fzgR/cyrpO/z+4MrXNkW7z93Ig9bfxzX/3ARtz25zrNEH69gEFvV37koaLv+J0/k4v1Hcla/YhbbehRX/+u4Q2a8o6IBOgsLwAKesIDcxncCEb3spQAt57pzhvTh0kMbeNDZU3j0tfM50vn1eAkQ39/z+oSQPVq2r+ZR187jQYumsJwqyRnchz14vcEviWh6+ymCVE9EFgwSFoAFjLWAEP9pXrmNLyU7PXgOW87Ry0VxLY+uxqq+08WEIbK261nmQK6VkDkpbBjMMkceEaHvENF8pBw2NjaiY7CAay0gSUxmtRdAkauWXRtw03rmBs9LD1gwmUdddQq3PXEBCD/JhN+dsGjbuS548WHV8qlcOqUheDrGzRglIhECp2BHwLWxFgODBYyxgNynPNOtxJ/eqyBIGkPXHstygVp3ZIPPI2/Vm2aXsfefx0PXHBs8VZNenO9Wwfo6Ec0gIrkOBw9YABaABZRZQArzHNp+gd+LblpNyfnjvBH9uHLepOC97uN2rQfpG77CVyEuJL+B7OoU1A9kuTvDTZjuuA5HdueQVEhZ+ENDsIB3LSBZ++TCI1cEyrQeuVwyaUwwaU7ztvNB+B4g/GiiQS7alFwFfaY2c3ppgSsw3uGrvyUiyS4o4h0PWAAWgAXissDBRPS844nf7+P80ZU84PSDue6Os0D4Hif8aGJAPpPkRZWnHcT5I/sz+X1uEAS/IKKD4vJ8fBkWgAU8a4FaInrS6cQvmfVka9/LiXa6Izt8Hv0aBrkORE4VyGki8jleDOwgopGejWoYOCwAC0S1QF8iut7J5XiF9CvmTOCGu8/BSh8rfaUYGHvfeW4QA5KV83YiKokaCfAhLAALeMYCuR15x//uxFW/JOKpnD+JG+5ZrDTgY3UcfXXsZfvIRYT95x0YLMzkRJ8hIqk1cCZuHfRMjMdAYYG9LCAXBx3ffg/x+04LYnIrV8UJE7j+rrNB+ljpJxUDkua5YtZ4TivOc+L1Ar8jogP3igx4AxaABVxtgVFE9JSjiN/vC962JeVokVcfq3PjdiB2rg/eTSAFjRyYnvgxIqp2dcTD4GABWIAKOkrzfuUU8peVVdmMfXjsxnOTutIzjnCw8jcWD42blgYvQM3o08NJuwL/7ogN+YiTsAAs4C4LyHa/JAf52AnE70tN4aJ9q7nm0hN43E4k54H4cOiOx871XHPJbC7ap5oF007wvfb6Ah8S0TR3hT+MBhbwrgWGEJHcAmR8AJJUvMFb9zYvM3Z1BzJ2KBknecekcfPS4IWD6SWOSUX8IBGVeTdsYuSwgLMtIAV7lrT/fWk6+WcP7s1SvAXFdkCurhdYO9dz9UUzOXd4ufGCnIj+ryOGoL6As7kAvfeYBVrbt/FeMZr4fT7u0VQVLKvr+qCf5NUn7GumsJIyxoVNQ5yQZOhpIhrmsRiK4cICjrNAJhF9x+RkPr5ASjAXv6RcBTGZSUyYF3vnRW5nlVoE/vSAybsCcpGgxJZ0x0VFdBgW8IAFZNX/mqmr/tTsjGCQQ5lde8kFZO4cezdtWR7MZBnIyzJZCLxERE0eiKcYIizgCAvkENHVRPQ/E8k/UJjDA86czC3bV2PFj1MBwEAMGBBfkeJVgcJsU4XAf4jociLKdkSERCdhAZdaoN7UVb+sYiQvf8u2VQj6MQR9rNSds1K3a66CQmDBZBYRbaK4b7+1+E0ianZpbMWwYAFjLSD39S8kon+ZFhhSstKDiXuat50P4gfxAwMKMNDy6Org7bGpORkmCgFJKraGiFKMjZboGCzgIguUE9FO44g/I+1r4n94JYK+gqBv1yoTx3HOzkPz1pXBXbWU7HQThcAzRFTpojiLocACxllgakclL2MCgD+QyqVTGlgSnYBMnEMmmCvnzlXTQyuCYtufYdxdA58T0QzjoiY6BAs43AJ5HXW8jSF+KXjS+4hGlrznIBPnkgnmzrlz1/jAEu59eKOJxYduISK5OBkPWAAWsGiBse2q+g2TtvwLagdw7W0LQPzY6gcGDMBA3Z1nBZNqmRQjiOgtIpJbk/GABWCBBCyQ2v4bubjGmMp9mWU9g2lMsWp07qoRc+feuRv+7eM5s29PY3YJO2LXSlwgmED0x088bYGidvUsNbqNcOaUzLTgxUetO9ZixWfAig8k7l4Stzq3Uk9jwILJLIm3TIkfHRct9/J0RMfgYYEYLVDbsX2WfAf2+4JpextRnQ/CB8LHURho2roimHnT5/cnP458vZB5l4gaY4yB+Bos4EkLzCKif5ig3PNHV3LtzWc4KuhZXT3h91hZuw0DY24+nfNH9TdFBPyTiOZ6MrJj0LBAFAtktNfevskE4pf0o0NXTQPxY8ULDLgFA7vWc9XKozlQYExq4etQVCgKG+AjT1mgjIh+bgL5F42vYbnH2G2rIIwHK3tg4EJufnhlMGeHCbGGiH5JRP09FekxWFigkwX2JaIPk+2QGaWFXHPpCSB+t6z4MA5gOQoGai6ZzemlBSacFvgzER3QKSbiX1jA9RYI5fKXGtvJc0S/L7gikFzjWCFhlQwMeAcDrdvXBLMJGnCRoFQWXEJEEhPxgAVcb4EsIro3qcRPxNkDS3n09aeC+KOslECI3iFEr8716Gvnc3Zlr+QtQr5ZAP2IiDJdH/0xQE9bQO7vfzqZ5O9LTQkq/7YdF4D8Qf7AADDAkjugct4klroeyYxNRPQsESFfgKcp0r2DH5bs+/tzh5axpA316moH48aKHhjoGgN1d5zFOVV9ky0C/kBEVe6lAYzMixaQnNhywUtynMvnCyYFwaq/6+AHYoBtgIELue3JdcGsn0m+NuCz9uyB+3mRKDBm91lgWvtFLl8mi/zTS/J55A9OxqofW73AADAQMwZGXTuPM3oXJmfB8vVC6V9EdLz76AAj8ooF5KpWKebzv2SRf9F+Ndy8dWXMTo8VEFbBwAAwEMJA87bzuWTiqGSKAImdEkPxgAUcZYE0ItqQLOJPyUrnwYsPB/FjxQcMAAOWMTBs7XROzUlqcaFbiSjgKAZAZz1rgQIieiJZ5J87rIzr7z7bstOHVgF4xooQGAAGGjYu5rwR/ZK5G/A4EUlsxQMWMNYCFUT0u2SQvy/FH7x4Ry7iQcBGwAYGgAHVGAheIDhrPCfxAsGX2mumSOp0PGAB4ywgea3lFhbbVXIgP4tHXHYiiB/bvcAAMKAdA3JRcaAwx/Y41xFb3yaiQcZFf3TI0xYYSkTvJYP8c4b0YdmeU6320R5WkMAAMNAVBsbefx7nDi9Plgj4gIhqPM04GLwxFhhDRB8ng/xLJo3h1sfWgPyx6gMGgAHbMdC6Yy2XHtqQLBHwERGNNoYF0BFPWqCBiD61m/wlZefgc3GVf1erE7yPlSswYB8GqpZPZX96IBlC4C9E1OxJ5sGgk26BfYjoC7vJP704n0dfN992tY+Aal9Aha1ha6dhYMxNp7OUFbc7HhLR/6GkcNK50HMd+BYR/cNusOePruTGzctA/tjuBQaAAeMw0PTQCi6oH5gMEfBPIpriORbCgJNigaOISNJU2gd0n+/rCn47cYuf01ZG6C9W817CgNwqWHZsG5PPZ198/CZ18JFJYQQc1DMWmE5EX9lJ/r5ACletPNo4te+loIaxgsSBgfgwINcFSOyyM1YS0X+I6ATPsBEGaqsFZhLRf+0EdGpuJgr5YKsX4g8YcCQGRlx+UjJSCEuMRhEhW6nR/Qc73O6Vv1TikvrcWHnEt/KAvWAvYMAcDNTdvjAZFwfKTsAx7qcljNAOC0wkIrnIxLbtLMnnj4v9zAliIBTMBTCQOAYaNy/l3KFltsXPjlgt12lNtoMgcAz3WqC14zYT28Dbc5/h3LodyX0QcBMPuLAdbGcaBiSm9WwbZlsc7RABcqfWfu6lJ4xMpwUa7b7Pv8/UZh63cz22/XHOFxgABlyHgbad64J3M9m5m9qxgGvTSRRo230WGGVnhj+prjXwrENd5/CmrULQH6yMgYHkY2Dw4sNZqpfaKAQ+J6Ja99EURqTDAsPtzO3vT0vl4RcdD/LHig8YAAY8g4Hh62ewpDS3UQRI7QAp2oYHLNClBQYS0Z/sAqU/I8A1l83xjNNj9ZX81RfmAHNgCgZGXnEyp2Sm2SkCpGLrgC6jPz7wtAXK25NISK1pWwCZmp3Bo64+BeSPVR8wAAx4FgMjr5rLKdnptsTcjtj+JhGVeZrpMPi9LJBHRL+xjfxzM1HQB0Hfs0HflBUo+mHGbsiYG0/jQH6WnSLgd0RUsBcL4A1PWiBARI/ZRf6BwhyuvfVMBH8IAGAAGAAGOjAgCYPSivLsFAFPElGaJxkPg95tAR8R3WYX+af3KuD6u86G0yPwAwPAADDQCQP1P1zE6SX5doqAm3czAV540gJr7CJ/qZXd8KNz4PSdnB7bsGZsw2IeMA8mYGDsxnM5s29PO0XACk8yHwZNxxLR/+wQAFkVxdx4/xKQP8gfGAAGgIFuMCCpg7MH9LJLBAgHSKE3PDxkgfFEJLmitYMsq38JNz24HE7fjdObsPpAH7AKBgbMwEDTluWc1a9Ye3zu4ACp9bKPh/jP00MdRkSf2UH+GX17cOMDWPkjqJoRVDEPmAcnYUAKomVWFNklAj4loipPM6MHBl9ERG/YQf7pxfnccM9irPyx8gcGgAFgIEEMjL3vPE4vLbBLBEiOgF4e4EFPDjGTiH5mB/kHCrO57s6z4PQJOr2TVinoK1bVwIBeDMidU2k9c+0SAb8goixPMqSLBy23+91rC/nnZXHthgUgf5A/MAAMAAOKMFB72wJOzcu0SwTc7WIu9OTQlthB/pLScswNp8HpFTk9VlZ6V1awL+zrJAzU3nwGp+Zk2CUCzvYkU7pw0BOI6CvdAkAK+4y8ci7IH+QPDAADwIAmDIy6Zp5dBYSEM/ZzIR96akhS4Odj3eTvC6RwzSWz4fSanN5JqxT0FatqYEAvBkZcdiJLGXXdcZ2IpIQwCgc5VDJkEJFc0KEVKD6/n4dfdDzIH+QPDAADwIBNGBi+fgaT36c1tndwh1w4jpoBDhQBN+omf2l/4MJD4PQ2OT1WVnpXVrAv7OskDAw4c7IdAkCOca0D+c/TXT7FDvIvm9YG8gf5AwPAADCQJAz0mdpslwg4ydOM6qDBjyUiSe2oFRg9WoZy2851cPwkOb6TViroK1bWwIAmDOxczz33Ga411ndwyZdEVO8gHvRkV3sS0Vu6yT9naF9u2b4a5A/yBwaAAWAgyRhofWwN51aX2yEC3iEiySaLh4EWSCWiHbrJP6NPD5ZCFVD0mhR9koMJ5hXzCgw4DwNSQVBKruuO/0T0KBGlGMh/nu/SGt2Tn5qdgSx/IGiIP2AAGDAQA3V3nMWpubZkC1zuebY1zAANRPRvnQLAl5rCI75/IhzfQMfHis15KzbMGeZMBwZG/uBk9ge05wiQJEFNhnGgZ7uTR0R/0En+5PNx1cqjQf4gf2AAGAAGDMdA1fKpLDFbKyd8XVU2x7Osa9DAb9c80Vw+Y184veFOr2M1gTaxSgUGnImBsmPbdAsAaf8mg3jQk12Zqpv8C+oG4nY/kD8EIDAADDgIA3KLdmHDYDtEwDRPMq8Bg5YczZ/qFADpvQq46UFc8Y9VkDNXQZg3zJuXMdC0dYUddwb8hYgqDOBDT3XBT0RP6CR/KTYx+oZTofodpPq9HOwwdpA9MLA3BkZff6odFwXuwq2B9uqPFTrJX9oevOQIkD/IHxgABoABh2Ng8OLD7TgVcJ69FOjdo9UR0b90CoDeU8bC6R3u9FgN7b0agk1gE69ioHRyvW4RILehSxp6PDRaQG67eF0n+ecOL+fWHWshACAAgAFgABhwCQZaH1/LOVV9dYuAV4koWyP/eb7pq3WSf6Awm8fefx6c3i1Ov30NN96/hJu3ruRxu9ZjXl0yr15dxWLc1nZwxm48lwP5WbpFwPc9z9KaDLAvEf1PlwDwpfh5xBUngSQcShJjbj6dK+dN4uLxIzijbw/2BVL2cvRAXhbnj+rPfY9u4aFrjuWWR1Zhvh063yBDa2ToVfvVXDaHfX7/XrFBIa/8h4gaNXGgZ5vNIqLfK5ykvQDQb87+IAOHkYEUAKmYPZ4zy4v2ms9YsOJPD3DRvtVcc/FszL3D5t6rBIZxWxc+5bP2SyhexBJTOr7zGyIKeJatNQz88jiMH/fk5tVUcNuT60ACDiEBIX5ZxQuBq8KFlHiuvmgmMOAQDIAIrROhV23Y9sQFnDusTFns6CIGrdTAg55sspmIZFtFy4SlZKZx/V1nI/A7JPAPWztda8UvuQh09LXzgQeH4MGrJIZxWxNADXefwylZ6Vo4pYOr/klEwz3J2AoHnU5Er+gif2m3asVUBHsHBPumLcvtSu3J5Pdx6aENLMdEoLUWaGE/2M9UDAxZeqROASBt/4SIJGkdHglaYLVO8i/arwYB3gHkL2o90fP8VvAju0MVcybgtlAHYMRUkkG/zBZAxRNG6BYBpybIfZ7/2RAi+tJKAI/2W8nz3/zj8yEADA/uY246neXq/WhzqfszER/V350FrBiOFZCt2WRr4vzILcLpxfk648tf26sGSt0aPOK0wOPaArvfh1v+HBDMGzYu5rQeuTqdM662pTJk7YYFEAIOwI6JZIM+mSlQRl45V/etgVvj5D7Pf32WNvIn4vKZ+yGIGx7EZXcmq6I4LoLWiZlQ277UFO47tYWbH14JDBmOIRCumYRr4ryUzdhHd6w5xvOsHqMBCono41DAVf2cO7SM5TYQE0GIPn0TsHp9q1a3Q1pqXzKKDTrnMJa645i3b+YNtoAtnIiBth0X6E4V/CER5cfIgZ7+2lWqST/UnpT4rbvzLARsw1ducr49NGemP2cPLMXpJMPx5ERCQp/tF1J1ty/UXTpY8tngEcUCo3Te89//5Ikgf8ODtezOZPQudIwACAkUySjYcM9i4MtwfIFY7SdWJ9m834n764w9XxFRTRT+8/RHPiLaGQqoqp+zB/TC1r8DgvOQJdrvzdXm4FJ/oM/UZm7ZhhoDTgr66CtEQQgDciogq7JEW4wgoqeISLgOj04WOF416Yfak+IPo284Fasz0wXAzvWc2benTuezpe20ojyuWj4VFQhNxxv6h5gYAQOSCVSSgYX4Q8MzLgjsRP65RPS+BkMHJ7HvtFYAPQLQQ6rXlGe5HUcXBpLRbjCt8HVIK2wKvtAPrPRjxYDs5GmMGX8kIilwh0eHBS7UZez00gJueXQ1BIADBEDvIxp1Ol1y2vb5uGh8DUst8liDD74HogIGkouBlu2rdV+LtArs/7UFyono71oEgM/HUv8ZzpRcZ4rV/mnFeckhaU2FpsIxnZKRxv3nTuTWx9cCjw4Qo7FiFt9zRmxJZJ6kTHi4Dyt+/Tci6g0RQHSHYsPunjS5lzyRicdv7Hfqsfeft3vedOHBhHYl7SiuD7AfX/Bp2DwRDJQcMEpnXLrJ6wJgDBH9V0dglkQtTQ+imlsioE/Gb4Z/+3idjmZc2/mjK7n2ljMgULEbAAwYjIGmh1ZwoDBbV/wQ7qv1sgh4Ugf5S5tDV0+DYxnsWJ1FRv95B2pxsqLiYg6kpWlp2yp25e6U3lPGsgSZzvbA/1ixAgNmYEBKxlv19Si/f8yrAuDgKEaxZHBZXcF5zHCeWOeh7Di1ubjz8vL4zh/dyx999gW/8sZbPHfefA4EApZwpQuvqTkZPODMychT4SDBGiuu8T1nxaGI87VrPeeN6KczdhzkNREgiRCe1xFQZVVVezO2ViMC2eAAWzqlQamDLVtxfpD8RQCE/p7++XM8foLWTF+WxiDFj2oumQ3xajBOneZX6K8aATLmhtN05gb4pdeSAx2ug/ylzdJDGxBAHRhAiw8YaYk8O+Pp2htu3k38IQEQer7z7o08cOAgpcfrfHwr//doruL6OxcBxw7EMQhXDeGaaMdeB9fpjBmeSQ4kq/8XrQTIrn6bkp3OjZuXInA6MHCqFgDX3XhLlwJAhMB7H33K67/9XZZTBV3hKZnvS9lhSUYiZZFNDIbok3uJDnMbeW4bNy9j4RhNceE1Ikr1wqmAaZoMyANOPxjB0oHkLwHHbgEQ2g149fdvB68PSElJ0eXYltpNzcvkAQsmo+ywQ3ENMo1Mpk61i66LlTs48SS3C4AUInpZhwDILOvJUsjBqcDyer+TJQBCQuCxJ3/CTc0tlshaB65DbWYP7s2SKtnrOMH43UWoTpvP1h1rOaNPD11xQlIEp7tZBMwKBTTVz9XfmYng6OBVUrIFQEgI3HHXPVzRT+sVv5aCR4+WoSg77GCcO43w0N+9Bdfw9TMs+XA33HeaWwWArP7lPIdy4xXUDQT5OzwomiIARAi88/5HvHL1Ws7JyVGOVRX43112+BGUHQZB7U1QsIl+mxQ2DNYVG1y7C3CyiuDXuQ1fip9rNyyAAIAA2MMhu7sIMLTij/b84u9e5aOnHcs+n9bSoHv0uzO+o/0vZYcHLz6cx+1cD/w7HP8gbf2krdLGdbcvZOGeaP5p4bP5btsFSCOity0YpEtD9zmiCcHPBcHPpB2AzqLgoW3befSYMV1iUAeu42kzr7qCR99wKvzABX6gkqTQll5RIVk84/HTOL77DhEJZ7rmcXocg4/ZqP70ADfevwSBzwWBz2QBIILgw0//yldecz2XlPSKGZ86MN9lm6Gyw/ei7DCITy/xwb5f27dx01IWDurSJ62d7p7nFvYXJSPnNZQbqmz6OJC/C8hfAorpAiC0K/CHP77PZyw4i9PStd0PbMlPUrLSWW5VkquVEahBhMCAXgz0PVrbnUNvuSUvwIk6yD8lM42btqDan1sc3CkCICQEnv3lr3nKYUdYImsdfhFqM72ko+ywSwSiW3COceglZLvtKxVnhYtCfqf4+Xin7wJI1r/fKTZK0NgVs8ZjheOi4O40ARASAvdvfoiHV9foCgCW2y0YM4Brbz0TvuIiX7Gb5HC86KKlbIbaQmZhfPkbp9cIOCJsMJaDWait1OwMbt66EkHNRUHNqQJAhMAHn3wevD6gZ1GRMoyHsK7k2e/jkkljsGPmIn8BKUcnZTvt07R1hc4UwZOdvAvwjJIA1ulDTEnwAAAgAElEQVT6gX4nHwDyd1kwc7IACO0GvPbmH/nMhYs4kKZtS9CSwEjNzeTKeZOQMdNlvmMn2eFYkYVHxezxlnwzCk8+5VQBsG+UQSVsrEB+FrcgAYrrBJAbBEBICDz1zLO8z77aAkLCvhPyx6z+JVzzvRNchyGQU2Rygl3020WKdonADvmY4ucWJ4qALYqNEDRu5fxJCFwuXMG4SQCEhMC9m7bwkKqhuoKC5XYL6geyJDQBQegnCNjY/Tbuf/JEyz7ZBWfe5zQBMIiI/tvFYBI2UqAgm1seXY2ABQHQLYZUZAIMEbmVZ8eUHd6GssMgafeTtM45Fm4KFGZ3G5sS4MX/ENEAJ4mAKxIYZLeGk7KoOicQbScvALhxByBcOLz06ht83IyZ7PdrSx/arf9E88lAYQ4PXnIE0gq7UFwjrtkX1ypPO8iSH0bx0e85RQDkEtFfowwkIQNJXfSW7Vj9u9WZ3S4AQmLA9LLDOYP78MirUHbYrX6GcekVA8JRgbyshDiuG878gojynCACzu5mIAkZR66yBHj1gjeZ9vWKAAgJASk7XF5RkZAv6PCvzm0Gyw5vXAyfw44AMBAnBspn7KvLrxeYLgD8RPSHzsHE6v/+tFRu3LwMQIwTiMkk9HiP7TUBIELg7T99xOect5QzMrRdPWwpEPkzAlwxZwK3bl8D33Ox78Xrq/h+9IVY4wNLWEp2W+W9CL//PREJxxr7ODhCpy0bovTQBgQglwcgLwqA0G6A8WWHi/O4avlUHrcLZYdBftHJD/b52j69vlVrmfe64NJJxrI/ET3URacTN4bPh1uVXE7+EjS8LABCQuCRx5/kuvqGxH2lU8Is1b6YO6yMR107D2LcA/4IIrcmdGo3LGDy+XT48iZTBUAFEcntCkoHLeciAUZrYHSC/SAAvmARAk4oOyxphRs3L4VfQggAA1EwUNg4RCkXdnCrcGw/E0XAharJX9obecXJAFkUkDmB3GPpIwTA1wIgtBvw1nsf8uIly8wtO5yR9vX1AY+j7HAs+MZ33L+I6TzHIy47UYcAkDbXmCYAAkT0J9UCIKeqL8jfA+QvjgMBsKcACAmBnz//otFlhzP79uRha6fDTz3ip51JDv9HFzZyW61qXiSi94lIONeYx1QNg+Shq6YhsHgksEAARBYAISFwz/2befCQKh3BREmbhfWDcK2OR3wVpB+d9MPtU7XyaCX+FYFfDzeG/YnoxxE6aGng6cX53PbEBRAAHgkqEADRBYAIgT99/Blf+v0r2NSyw74UP5dOaeCmB5fDbz3it+Fkh9d7CwPhsPReBZa4sAtulVo7Rjz66rj4D0V/9gaTmx0MAqB7ARDaDXj192/zCSeezCkpWu41thysJBPaoEVTuO3JdRACEAKex0D/eQda9qkIIuArIio1QQEsi9A5SwP2pabgKmOPBQ4IgNgFQEgIPP3s87z/AdoqkFnyYYkJWRXFXHPxbM8TgJuFO8bW/UJNktgJp6nmSSJabIIAeEX1wIrG1yBoQABYchhTqgGGyFrns6QV7l9Zacleqn04vL1gWuG7z4FPe8ynIQ6+EQc99xmuwz9fTbYAaAt3dFWvay6bg2DhsWCBHYD4dwDCRUWo7HBubq6OQGO5TVkB9ZnazC3bVsG3PebbEAIXBnfCVPFjp3YakykCbujUGcuBIqN3IUqSejBAQABYEwAhMfCbV17nadOPY5+eLGSW/TutZy4PWXYUfNyDPu5lIdC2c52uiwGvSZYASCOiT1QLgP4nT8QKwYPBAQJAjQAICYHtTzzFjU3NlglbtX+H2ssZ0odHXXUKfN2Dvu5VIdBvzv46/PFTIhIutv0h9yEqHZDcRiSVlLwKEC+PGwJArQAQISBphW+8dQOXlZcr9VOVfi/XB4zdeC58HkLA9RgYe/957PP7dfjiZNvZn4juURkIpK2ebcNcDwIvk3y0sUMAqBcAod0AKTssaYVNLjtcNmMfbnl0NfwfQsDVGOjRpCWZ1w/tFgC5RPR31QKg+ruzXD350QjQ659BAOgTACEh8MJvX+Gjpx1r7PUBkvwLZYe/uXLc6zHBjeMffuEMHTsAwsU5doqA2arJP5j5bycSh7gR9LGMCQJAvwAICYFND/2Ya0aM1BGIlLSZO7ycR183H4sB7Aa4DgOSHCutKE+Jn3Ti4OPsFABbOx3c8oAq5kxw3WTHQnz4ztcrHggA+wSACIH3//wXo9MKk9/HpYc2cNMWpBVGjHDXrkj5zP0s82UE/t1slwDIJ6J/ReiApUHV3302BICHFT8EgL0CILQb8Oa7H5hddjizo+zwDpQdhhBwhxCov3ORJa7sgnv/SUR5doiA47voQMKDyhmKsr9ed24IgOQIgJAQ+NlzL5hddrgMZYe9HiPcNP7sgaUJ82UU/p1mhwDYFKUDCQ2q8tSDsPr38OpfHBsCILkCICQE7t20hYcO05K2NKHY0DnWFNQN5NoNCxAvPB4vnC4GJN9NZ2wr+H+jbgGQpfzqf5+PGzYuhkN73KEhAMwQACIEJK2wlB3u0bOnjiBluc3dZYcfWoG44fG44VQh0HD3OZb9IIJgkLsBsnWKgKkRDmppIHLFr1MnEf1Wd04OAsAcARDaDXj59Td51gknmlt2OD+LB51zGEuaVfiiOl+ELe2xpWTDVM2nRHSETgFwp+oODzjjYDgvVDxOAXxmngAICYGnf/4cj5+gJY2pkgCY1a+Yay5B2WEQtz3ErcrOlfMnKcF/J06+TZcASFGe+9/n47H3Ig2oKkA5uR3sAJgrAEJCQMoO9+vfX0fQUtJmsOzwj1B22MlxwEt9F+4j9UW7PiYi4Wrlj306KQ3LTps3sh9W/1j9BzEAAWC+AAheH/DhJ7z+29/lnJwcy/6vOp5Ie74Ayg57iUSdPlY5Ba7BD5qVsz8RXay6owPPOhQCAAIAAsDg7f/Q6r/z869ffo1nzp7Dfj3FTSwHRSk7PHjx4Sg7jPhiNMcMOP1gy1iPwMvrdQiAlyMcKPHO+32o/Afn3O2c2AFwxg5AZyHw6I5d3DC2MfE4oLiiaOcYJTlGRl2NssNOXym7tf9SIVCyXnbGrcX/f61aAAy02KG9Bpg/unJ38Hfr5GJcsV+UAwHgTAEggkDKDl95zfVcWtp7Lz9XHTcSas/n45JJY7DgwILDSM7JG9FPh99UqBQBZyTkeFHUPa7+j50cvSAkIACcKwBCuwKhssPp6Rk6AprlNv0ZAZaaI62PI62wF2KKU8ao6W6AU1QKgC2qBUDdnWcZqcacAhq39RMCwPkCICQEfvXSy8Gyw6pjhqr20ktQdtht8cPJ46m9bYFlcRvBN+5VJQBSiejzCAdIuNMZpYUgf2zH7YEBCAD3CICQENj04MNcXTMi4TihMuZEait/TCXX3nLGHjh0MpGg787dVU3vVaDaTz5TdTtgWyTnsfJe78Mb4XQQAHtgAALAfQJAhMAHn3wevD6gqLhYdYBT057/6+sDUHbYueTpBuFTeki9Gjzvedp9rIpdgLVWyD7Sb6svmrlH8HfDBGIM1gIIBIA7BUBoN+D1t97lMxcu4kBamo5AZ7nN1JwMrpw3iVtRdhixOQmLs2HrjrOM4Qhcu1KFAHgmQsMJd1YSdbQ8uhogSwLITBYpEADuFgAhIfDMc7/iiQdqSYGacEwKj2+Z5UVc/R0sUEyOFW7sW8u2VexLTVGC4TA877IqAHKJ6KuwBi13sKB+IMgf5L8XBiAAvCEAQkLgzrs38sCBgyzHE5WxKbytHs1VXP/DRXvh1I3kgzFZ271UZT+5NT4cgwpe/6s9gZ9U8E34cZCCTuwxKMl8pMpgaMcM4KqYBwgAbwkAEQJSdljSCufl5e0RI1THnETbkxVZn6nN3LztfMQsLFq0Y6D/vAN1+MGEhNmfiL6dqPN09bu6O3D7nwrCdFsbEADeEwCh3YBXf/82z50339yyw3lZPGDBZJQdhgjQKgLkjpSueNPC+2usCICfWjjwXoOR+2/dRlwYj5pdCAgA7wqAkBB4fOdPuLmlda+4oTIGWWkre3BvHnnlXMQwCAE9GNi1ntOKle+GPZmoAMgkIjmHoMwhex82Vo/hAEjH2xUCAAIgJASk7HBFPy3pUZXEsmDZ4XsWO97nsHhRs3hRacdek+uUYDSMt78kooxERICcO1DamWFrp8NpIFYiYgACAAIgJADk+Z33P+Lzli7nzMxMpTFIVUzzpwe4YvZ4btmOO5pUEqDX26padYwOvI9LRACsUuUsoXYaH1gSMfh7fdIx/gsZAgACIFwAhF6/8NtX+MipR7PPp7ximpJAm16czxK0x+1aj9iGxY1lDIzdeK4SXIY4t+N5WSICYFunRix1LKM30v+C6LvecoMAgAAIkX6k50d37OT6hrGWYpDKeNa5rdyhZTzqmnmWCQAxousY4RXbyLVynfFl8X+p5RPXw0dEn1g86B6DKDlwNJwDCrlLDEAAQABEIv7w96Ts8I23buA+fcv2iC0q45Sltnw+Lhpfw2PvO69LnHuFxDDOxIVM8QTl9TM+iov9iajKkiNEuHZg0DmHwSkgALrEAAQABEA42Ud7/dZ7H/LiJcvY1LLDKRlpKDuMWNdlrOtOHA1ceIgOgTsgHhEwS7UAkJKH3Q0cnyeuGp1uOwgACIBopB/pM8eUHQYZIvbHgYExN5+uQwAcF48AuFqlAEjNzkASjTgA4HQyT6T/EAAQAJFIPpb3HtiylYdX1+gImkraLBgzgGtvPRMkiBgYEwbadq7jlOx0JdgL4/EfxCMAngv7oeWOFDYOiWngiRAHfuOOXQMIAAiAWMi+q+/86ePP+KKLL+XCHj0sxyuVsS/Uli/Fz32OaOKmrSsQCyEEusVAYb3yOhnPxioA0ojonyHgqnjuf/LEbgcMIncHkSc6jxAAEABdkXs877/25h/NLjucmxksO9y24wLERAiBLjHQb87+qoWsJAQKxCICRqsg/fA2Rl5xcpcDTZQw8Dt3CQYIAAiAeIi+u+/+9Be/5AMmaimuoiQwZ1YUcfXFsxAXIQIiYmDEZScqwVk4DxNRTSwC4MROP7LUEdn6ankU2bIgWKILFggACIDuSD2Rz+/dtIWHVA21FMNUxsPObUl59LrbF0YkAcSM6DHDzfYRzhTu7IwXi//PjEUAyMUCyg6cU9UX4IbK7RYDEAAQAIkQfCy/ee/DT/j8NRdwbm6usrimMkb6AilcNn0ct2xb1a2fuJn0MLY9BY8Un1KJMyK6LBYB8LTKg5ZOaQCoIQC6xQAEAARALGRu5TsoO7wnwYBwzbZHr2/VqhYA3VYG9BPRFyoFwKCzp3Qb/AFEs4Fox/xAAEAAWCH3eH67/YmneGxjk+rgqqw92TUddfUpiJseXzgNOP1gZZjq4PS/EJFk+e3yIdmClB509PWnAsgeB3IsAgICAAIgHhJX8V0pO1xeUaE03qmMn8GywxtRdjiW+OHG72i6ELCsS/YnokNUAtjn93Pr9jUQABAA3WIAAgACQAWpx9uGlB1euXotZ2dnGykEpOxw2Yx9cCG1B2No04PLdWByUjQBsESlAMiu7NVt4HejcsOY4j+lAQEAARAveav8/ou/e5WPnnassWWH04rzuGr5VJQd9pgQCBTmqBYBi6IJgNtUCoCSA0ZBAHgMsImKHwgACACVhJ5oWw/++FEeOWqU6qCrrL28kf14zE2nI656JK7KbaIqOZmIboomAJSmAO4/FxkAEyVEr/0OAgACIFHSVv07KTt85TXXc0lJL9XBV017Ph+XTBrDjZuXQgi4XAj0ndaqBjPfXNv3TFcCQK4O/JtKtTH8whkAqMsBqkqoQABAAKgmcqvthcoOp6UrL8yiJKjvLju8Yy3irEvj7JBlRynBShiv/7WrOwHKw76k5KD1P1wEYLoUmKqIP9QOBAAEgFXC1vX7nz33Ah940LeUxETVMVbayyzrydUXzUSsdWGsldM9GjDTJ9IuwHiVB/KnpaIEsAsBGSJs1c8QABAAughcVbv3b36Ihw2v1hGQlbRZUDuAa29bACHgorjbumOtjpTA4yIJgFNUCoDsQb0BRBcBUTXhd24PAgACQBVR62xHyg5f+v0ruGdRkRLSVhlzpS3JHy/ZV+UWss4+hv/jvzvJBJtl9StWjbU5kQTAd1WCsXjCCAAQAiBmDEAAQADoJG7VbUta4TknzeXU1FTVwVlJe4G8LB60aAq3PbkuZh80gezQh71FStE+ynedLowkAO5XKQAqZo0H8CAAYsYABAAEgGqStqO9p599nvc/YKIS0lYZf0NtZVUUc83Fs2P2QxDw3gScbJtouBPgR5EEwK9DoFHxLFcvJttwOL55YO5qTiAAIADsIGxdx5C0wv0rK40VAsG0wnefg5jswEXZwIWHqMbV85EEgNJbAEdeNRdgcyDYuiJo3e9DAEAA6CJnu9p994M/84pVazgnR3n2NiUE4A+kcvmMfbnlEZQd1h3PVLZf/Z2ZSuY/bGH/eWcB0DPsQyUHa9yEJBUqQeD2tiAAIADsImrdx/nNK6/zzNlzOCUlRUksVR2b03rm8uDFh+MuLYcs0Oo2LNSBo7xwETBaJchSMtOQs9oh4DJFWEAAQADoJma725eyw41NzTqCt5I2g2WHr0LZYVNiYFf9aNm+Wsl8d+L46nABcGinDy0dEEWAnHPuvSvQ2f0+BAAEgN0EbcfxJK3wjbdu4LLycksxVWV83qMtn4+Lxtfw2I3n4pStwYu2QIHyapXfChcAp+0Bim/yBicE2sKmIQCTwWCym9xjOR4EAASAHYScrGO8/SfDyw5noOxwLHEqWd/JHVaWEBdH4XXJ+7P7cVGUL8Z9YElEkSxD4bjO3H2AAIAASBY523ncF377itFlh9OL81F22MDFm+TVUcnRRLRuN/sT0R0qG+930gEQAAaCyGRxBAEAAWAnESf7WJse+jHXjBipOqgray9/dCXX3nwG4rghcVzu3lDJ0US0IVwA7FDZ+JDlyAFgMtma2DcIAAiAZJOy3cf/4JPPg2WHi4tLVAd3Ne35Q2WHl0EIJFkIDFp8mJo5/eb0/vZwAfCSSgEw4vsnAjBJBoyJJB+tTxAAEAB2E7Apx3vj7fd4/mlncCAQUB3klbSXmpPBA04/mNueuABxPUlxveZ7JyiZyzCefzFcAPw57APLB6q78ywAJUlAiUayJn8GAQABYAohJ6sfUnZ4ymFHWI6/KmN5eFtSdnjY2umI7UmI7RpyAXwQEgCpRPTf8Im2+rr54ZUASRJAYjLBd9c3CAAIgGQRr2nHvW/Tgzx02HBjhUBB/UCu3YCyw93FNJWfNz20QjUe/kNEfhEBva0SfvjvfYEUJAEC+cctACEAIABMI+Jk9idUdrhHz56qA7+S9naXHX5oRdy+rpIYPdPWrvXBUs/hXKvgdbEIAKVZAOU2Es9MCohe2VxDAEAAJJNwTT32a394h+fOm29sWuHUvEwesGAy0grbwAVpPXKViLcw4VAjAmBi2BuWD5AzpI8yUoCQcOY9/YnMGwQABICpJGxCv5546qfc0jbOcnxWGevD28oe1JtHIa2wVu4TG4fbXMHr8SIAjlHQ0O6OFTYiC2AiBOj130AAQACYQLSm9+HmDXdwRb9+u+OtythtuS2/j/se3cKt29doJUKvxsrC+kGq5/1IEQCSElBZwyUTR2HybdgOcpsTQABAAJhOvqb0748ffMzLV67irKwsZXFbJQdkVhRx/V1ngwcU80Dx/soTR50oAmCJysnvc2QTJl7xxLuN7CONBwIAAsAUgnVKP3798mvBssN+v984ISDXBoy8ai64QCEX9D68UfU8nyMC4NsqBUD5rP0w6QonPRJZuvE9CAAIAKcQr2n93PbYE1xbV6+aHCy3508P8MgrIQJUxevy45WnAw7WA7hGpQCoPP1bEAAQAHFjAAIAAsA0YnVSf0Jlh/uWKa8aZ0kIpGZncO1tyBmgQgRUzptkaS4i8PyVsgNwV4QPEj7Q4POOiDv4qzAO2nD2HQMQABAATiJcU/v65rsf8MKzF3N6ekbCMVwlH0hbGb0LuXnb+eAFiwvDwYsPVz2nd4oAeFDlhA+7AKkiIUbiFyMQABAAppKqE/v13Asv8SGHKi8gkzAB9ZpcBwFgUQAMXXtswvbvguM3iwB4rIsPEzpYzSWzMdEWJ9qLAgICAALAiURrep8f2LKVh1fXJBTLVfIC+Xxcc+kJ4AYL3FB98SzV8/ioCICfqpxoXPkZ/+rXi4TfecwQABAAppOpU/sXKjtcVFysmkDiai+rsoTH7VwPEZCgCBh5xclx2TsGXn9KBMALMXwx5gOPueE0THCCE9yZFL30PwQABIBTCdYp/X79rXf5zIWLOC09PeZ4rpIbpK3h62eAHxLkh9HXzVc9b8+LAHhV5STX3b4QE5zgBHuJ8DuPFQIAAsApROr0fj797PM8Yf8DVJNJTO3lVpeDHxLkB6nAqJKr27MAvywC4I8qG23YuBgTnOAEdyZFL/0PAQAB4HRidVr/7920hauGDlNNKt2213D3OeCIBDhC7KaSq4noLREAH6tstHHzMkxuApPrJbKPNFYIAAgApxGoG/r73oef8Jp1F3JeXp5qcumyPbmfPVIMwHvRrx9r3LS0S5smyOEfigD4LMEfR+xM88MrMbkQAHFjAAIAAsANhOrUMfzutT/w8bNOYDvSCuePqYw7PkAcXMhNW1dE5FwL/P2JCIAvLDSwV4daHlmFyYUAiBsDEAAQAE4lTzf1e8eup7m5pXWvuK6SI1Ky03E3QAIc0fzj81XPy19EAPxd5eSiFGT0bRwo2cj2gQCAAHATkTp9LHfcdY/WssOoFhg5Dkbjh5ZHV6sWAH8TAfClUgHw+Nq4V3/RBo3P4geKE20GAQAB4HTSdFv/33n/I16ybAVnZmaqJh4kBUpgB6D1sTWq5+EfIgD+rVIAtD1xAQRAApPrRNJW2WcIAAgAtxGoW8bz9M+f4/z8fKXkM3T1NPBEnDwh3KqSqzu4n/6rslFkevLGil0l+UtbEAAQAG4hTDeOY9r045SSz6BzDoMAiFMACLeq5GqiIPdDAKgmM7QXvwiCAIAAcCNxumVMEADxxzTlPKBJAOAUQLxKDN9Xrt4hACAA3EKWbhsHTgEYQP5PXci6TgHgIkAQunJCj1f9QgBAALiNOJ0+HlwEaAbxh2KprosAcRsgBAAEwGcgYKcTFvqvDsPabwO8++ykx5wQsTrlWddtgEgEBAGQdGfEDoC64A0ihC0TxcDjO3+iPRFQanYGj9uFssDxCg9diYCQChgCAAIAOwCcKGngd84XHEgFbNZ2fyRxoCsVMIoBQQBAAEAAQAB4EANJKQY0H8WAIhF8d+/pKgaEcsAQABAAHgz+WLk7f+VuZQ6TUg7Y52OUjE9st0FXOeBXVSYXqNuwMOlk0p2SwueJAVCn3XANgLfJyAqR4bfxYefpZ5/nCfsfoDqpTEzt5VVXgB8SXHDWblgQk43j4POXJRXwC3H8oNsOjLnhNExwghOsk2BNbxsCIL4gDtKDveLFwOtvvctnLlzEgbS0buO4Sk4Ib2v4hTPADwnyw+jr5quet+dFAPw0fIKsvh555VxMcIITbDpJ6+wfBAAILV5Cw/djw8wHn3zOV15zPRcVF6smkLjay6osQRlgC9ww4oqT4rJ3DFz+lAiAx2L4YswHrrlkNgSAhUnWSbImtw0BEFswB+nBTvFg4IEtW3l4dU3M8VslF+zRls+HCoAWeaH64lmq5/FREQAP7jFRRJYOMuyC6RAAFifaZKLW1TcIABBbPMSG70bHy3MvvMSHHHqYpViukhdKD6kHL1jkhaFrj1U9n5tFANylcqIHn3cEJtriROsiWZPbhQCIHtBBeLBPLBh4890PeOHZizk9PUM1WSTcXkafHtyybRV4wSIvDF58eMJz0AXH3ykC4OouPkzoYJWnHYSJtjjRJhO1rr5BAIDgYiE4fCcyTj789K98460buG9ZWUJxWyUHhLeVmpfJdXeeBU5QwAn95x2oem5/IALg2+ETZvV1+az9MNkKJlsX0ZraLgRA5MAOwoNdusPAtsee4Nq6etXkYLk9f3qAR16Fi8JVxdzyGftanpNO/L5OBMB5nd60dJA+RzRBAEAAxI0BCAAQXXdEh8/3xMivX36NZ86ew36/31LMVhn/Q20F8rJ41FWnxB0HVJGlG9vpPWWs6nk+WwTA3NCkqXgumTgKkw4BEDcGIAD2DO4gO9ijKwz88YOPefnKVZydna2aEJS0l9WvmOtR7S/uGNidaCnef6SS+Qnj+RNFABwd9oblAxQ2DlE+8O4Mg8/Ny+wX75xAAIDwuiI8vP8NNm7ecAdX9OtnOU6rjPm72/L7uO+0Vpa69fH6P77ffQwvrB+ket6PFAEwcfcEWrwFUNrJGdIHk48dgLgxAAHwTZAH4cEWnTHw5E+e4dZx+6gmAGXtZQ/qzaOuxpa/TiEjNlbJ1UQ0XgTAKJWNphXnxR38dRoNbXevLE2wEQQASK8z6eH/L/i1P7zDc+fN55SUFNXBX0l7cpX/gAWTuW3nOsR9zQu/QGGOkjkL4/tqEQClYW9YPoAvNYXH7VoPMGgGgwmkrbIPEAAQACD8bzDwp48/40u/fwX36NnTckxWGd9DbUmcL53SwE0PrUCstyPW71zPvhTlF3sWiQBIIaL/hiZWxXPz1pUAhR2gcNExIAC+Cf4gQm/bQsr0Dh023EjiF34oqB/IUplO5QIAbUXfqW3aslw1Hr4iIr8IAHl8rIL4Q23U3YHEDwB0dEB3tg8EgLdJD6LnC/7Zcy/wlMOOUB3olbWXWdaTh61FqvfOscuO/zWUAn6/g/uDTy+FyFvF84jvnwh16KLVuR0AhwCAAPCqCHjj7ff41NPPTGqZ3mhxPzUngwecfjC3PXEB4nqS4nrN905QJuQ65vrFcAHweDQAxPvZkGVHAR9AqHAAACAASURBVChJAoodZK3jGBAAEABeEwChMr3FxSWqg7ua9vw+Lpk0hhs3L0M8T3I8H7RYeWGnYCXAkAi4I16Sj/b9ficdAMAkGTA6SFpnmxAAEABeEgCbt27jESOVJ3ZRQ/xEnD+6kmtvPgNx3JA4riEN8G0h8pdnpfUASg9tAHAMAY5O0lbZNgQABIAXBMALv32Fj552LPt8PmVkHW0xFu9n6cX5XLV8Ku7kMix+F08YoRovF4QLgFPjBUq07yMbYHwXwKkkUqe2BQEAAeBmAfD2nz7ilavXGpu+158R4Io5E5DFzzDiD8Xz3GHKqzxKCYDdj0OiEXq8n2VVlmAHwFAghQBl2jMEAASAGwVAqExvWXm56hWcmvZ8Pi4aX8NjN56LmG1wzA4UKK/7cNBu9ieikfGSfLTvp2SkYQvJYDCZRv7SHwgACAC3CYDtTzzFjU3NaohaQZr2zjE7p6ovKvY5IE63bF+tA0PDwwVAYWdwWP2/cdNSKEoHgMsUMQABAAHgFgHwm1deD5bpNTV9b1rPXB68+HAetxMZW02Jf9H6oSEHgAiKvHABIK//ZpX0w38/8qq5EAAQADFjAAIAAsDpAuDdD/4cPM+fk6M8Z7uSFaA/kMpyNXnLI6ti9stoxITP7LnWq/o7M5XMfxg//6Uz+cv/khhA2YGGLD0SIIMAiBkDEAAQAE4WAHfcdQ/3r6xUFj9VxmJpq0fLUG64+5yY/RHkbg+5x2LngQsPUY2r5yMJgPtUgq581n4AGwRAzBiAAIAAcKIAePrZ53n/AyaqDtDK2suqKOaai2fH7IexEBK+Y6846DutVRkeOjj+R5EEwHdUCoDi8SMAOgiAmDEAAQAB4CQB8Orv3+YTTz6FU1NTVQdnJe0F8rJ40KIp3PYkyvQ6XbD03Ed5YagLIwkAuS9QCfiknexBvWMO/k6fIPTfuiKGAIAAcIIACJXp7VlUpCxWqoy7UjI2WKb3weWIvy5ZgMkujkqMENGcSAJgvMqD+NNSuW0n1CfEQWziAAIAAsB0AXD/5od42PBq1cFYWXsFdQO59jaU6XVTzG19bA37/H5lGOng+HGRBECZSgEgbdX/cBFUqEtUqG6nggCAADBVAPz8+Rd50rcOVh2ElbUnZXqrL5qJWOvCWDvmptOV4SSM33tHEgA+Ivoi7EuWDzz8whkApQtBqUMMQABAAJgmAN5670NevGQZp6WnW46FKuNqqC1JuBZM37tjLeKsS+Os3E0Xmm9Fz38lIuH6iI9fKDpIsNP9T54IYLoUmKpFAAQABIApAkDS9155zfVcUtJLdfBV054vVKYXydZUxyHT2ut7jPI7AJ6JyPwdb96qUgBIUDfNoOhPbOfk7bYTBAAEgAkC4MEfP8qjRo9WQ9QKL6oOxeW8kf1YtoXt9k8cLzlxs6B+oGos3hRNAJwXApqK56z+KAoEx4nNcSAAIACSKQBe/N2rRpfpTSvOQ5leD+6mBgqVFwFaFE0AKK0KKFcvSiEDkGBsJOhlO0EAQAAkQwC8877hZXrTA1w2Yx9ueRRx1GvxsXHzUtWrf2nvwGgCoFLFyj+8jdHXzocA8KByjddZIQAgAOwWAJK+t7yiQkeQVdJmMH3vxsWInx6NnzXfO0EJjsL5mIj6RhMAftV3Agw6ewoA7FEAxyMCIAAgAOwSAI89+RPzy/RefQripsfj5oDTld96+lk08g999pNOisGSCik9tAFA9jiQYxECEAAQALoFgKTvnTtvPptaplfS9w5YMBkJ1BAvg5zZ66BaS9wbgcd3hEg+2vMVEX6YcEdyhvSBAACgu8UABAAEgC4B8N6Hn/Cqtes4Nzc34TimMiZ2bssXSOGy6eO4ZRvK9MayWPDKd7IH91aN1+9FI/7QZyd0BqiV/yU3NS5gwUWA3TktBAAEgA4BcO+mLTykaqjqQKqsPbnNq+72hd0K5O78B5+7K8YKZwp3WuHeCL89PkTy0Z5HRfihpY6MuPwkABy7AFExAAEAAaBSAPz0F7/kAyYeaCluqY6D4e1lVhRx9cWzovoESN1dpB7PfNZcNkcHdqujEX/os1Qi+jIcrFZf9zvpAAAdAiAqBiAAIABUCIDX3vwjn7lwEQfS0nQEUMttpuZmcuW8Sdy244Ko/hAPWeC77hMKkuLZKu92+v0/iEi4PabHc51+bKkzhWMHA+wQAFExAAEAAWBFAEiZ3u9c8j0u7NHDUqxSGffC25Lt3D5HNHHT1hVR/QBk7j4yT2RONWQAfDYm5u/40lXh4LX6OiU7HVe2QgBEDXwQABAAiQqAB7Zs5eHVNUYSv8TOgjEDuPbWM6PiPxGSwG/cKRbanlzHKVnKC1BdHo8AmGmV9Dv/Hg7gTrCqCkIQABAA8QqAX730cjB9b+dYY8r/6b0Kvk7fC/EP8RMHBsbceJoOMTs9HgEwWLUTISEQBEA0sQABAAEQqwAIlelNT8/QESgtt7m7TO/jKNMbzefxWWROGLjgEMsYjMDfkuU35ofUC/5zhEYS7ljJxFFQgXGoQK85BwQABEB3AkDK9N546wbu07cs4TikMqbt1RbK9CLGK4jxxeNHqMb3RzEzf9gXH94L4BbKW2aUFgIcCsDhVmEAAQABEE0APLpjJzeMbVQdGJW1lzu0jEddOw8xDjHOMgbSi/OV4bKDwzeH8XrML1epFADSVuP9Sywbx60E6PVxQQBAAEQSAC/89hU+6uhj2OfzqQ6KStqTYF216hget2s9YhvI3zIGGjYuVoLLTty9LGbWD/vi+E6NWO7Y0LXHWjaQ14nSreOHAIAACBcAUqZ36fKVnJWVZTnuqI5j0p4/PcAVs8ej3DlIXymnVZ1/jA68t4XxeswvM4nonyqdp3QKCgO5lcCtjgsCAAIgJACkTG9Fv346AqGSNoNleu9BmV6rPo/f730RYK+D65RgNIy3JQFQesys3+mLT4c1ZLljsl2GSd970mGTCxkCAAJgx66nubml1XKcURmzwtvKGdyHR145FzEMq349GNi1ntOK8lTj/4lOnB7XvxeGO4CK1yh8AQEQSfBAAHhXAKBML2JCpJjgtfdqbz5DNflLe2viYvxOX56kgvTD26g8/Vt61BNUqaPtCgHgPQHw3kef8vpvf5fz8pSvepQEUl9qCveZ2szN2853tG95jUidOt7+p2gpXjWhE6fH9W8OEX0VTuBWXxfUDoAzQazshQEIAG8JgB/ecx8PGjRYCVFbjUmRft+juYrrf7hoL5w6lVzQb/N3WfJH9VftD/8ioqy4GD/Cl38ayUESfc8XSOGWR1bBsSAC9sAABIA3BMAzz/2KJ046SHWgU9ZeZnkRV38XZXohGOwVDC3bVrHsOCXKq138bmcEPo/7LTmHoLRjwy86fo/gD7DZCzYT7Q0B4G4B8Ppb7wbL9KalKy9yoiQ2peZkoEwvFiVJ46VhF0xXguNOXL0ibraP8IPWTo1a7mjvw8YmzdAmkh/6hLsAQrfAue35g08+5yuvuZ6Liostxw3VcSjYnt/HJZPGcNOW5YhJEABJw0Dp5Hod/tEQgc/jfiuViD5X6XzpJbgdEKS/564HdgDctwOw6cGHubpGeV5zZYEyf0wl195yRtKCPmLAnjHAy/YQTlTJsUT0GRGlxM32XfxAcgkr7WDdHWfB8aC4d2MAAsA9AkDS9x497Vhz0/eW5KNML2LP7tiTbOFRe+uZSrm1g6s3dsHlCb19umoBMOD0g42ZgGQDAMfHKQA3bP2//aePePGSZWxqmV5/RoAr5kzgVpTpRew1SABVzpukQwDMTYjpu/iR1BJW2km55QHEhy2wEAawA+DcHQAp03vVtTdw7959lMYIZTEnVKb3ARQjC/kbns2JvXk1Far95n9EVN4Flyf89m+VOaSICb8P1QENUqHJDggQAM4UAI/u2MVjG5tUBzBl7eUM7cujrkGZ3mT7N44fWXCMve88JvWVLl9ImOWj/PA7SgUAEQ9ccAh2ASACghiAAHCWAPjNK6/zzNlz2O/3KyNrlfFFcqoPXnw4j9uJMr0g38jka4JdKk/TkhPjgig8nvBHUlJQqbPL1ocJk4A+JN9BIACcIQDe+/CTYPre3NxcpbFAVWyRRGOSvlcSq8Cvk+/XmIPoc5A7tEyHHzUmzPJRfii3FPxZlaMG2/H5eOzGc+Go2AVANcDPzBcAUqa3X3/l6UqVBcBgmd4fnYN4gnjiCAw03LNYx/b/R0Tkj8Ljlj66XakAIGIUB4quEL2ioLEDYK4AePrZ53nC/gcoI2rVMSSrXzHXXHqCI4K+V/wZ4+w+rvefp6X4zy2WGL6bHx+l2nlzh5XBcaHYsQNg4A7AK2+8xbPnnMQpKcpzlCsRE4H8LB50zmHctnMdYghiiOMwkDNYy10zh3fD4ZY+lspC/6daBDTcjW07rytm7ACYswPwp48/40u/fwX36NlTCVGrjhe+FD+XTmngpodWOC7oe93PMf6vdwak0qRqvyCivxFRpiWGj+HH96vuuCRCADC63zJys40gAMwQAPdtepCHDhuuIzgpabOgfiDXbliAeIEVv6Mx0O8kLafUfhQDf1v+ynGqBYBshbiZ3DC27sUNBEByBcDPnnuBpxx2hBKSVh0fpL3Msp48bO10xAkQvyswkFVZosPXjrbM7jE0kEtEX6p28ro7URvAy0IBAiA5AuDNdz8Ipu81tUxvSmba1+l7d6x1ReD3so9j7F8vhITrVPMnEf2DiHJi4G8lX3lI9QAqZo+Hg3tY3UMA2CsApEzv9y7/gdFleksPbUCZXg/HBLcKhvIZ++oQAJuUMHuMjcxULQDSivNwNa+HnR0CwD4BsO2xJ7i2Tkv9cSWBLXd4OY++bj4WBB6OB24l/7Yn17FkqVTNn0R0bIzcreRr2TruBqj+zkw4vUedHgJAvwAwvkxvcUeZ3l1I3+tWAvT6uIavn6GD/OXOPOFkWx9yxaHSwfRsHQYBAAGgBFPX3XgLu6HErooxSJnelavXcnZ2thLbqvb73WV6H1sD//eo/3tFGBQ2DdHhg3fYyvwdB5uiOhDI/b2N96Nkp1ecIXyc2AHQswMg6XvLyst1BB3rbfp8XDS+BunAQfqeEH5j7z+PfXqKZ30rGQIgQESfqBYB/U4+wBNgCCc/vL4QmQAVZwJ87MmfcGNTs3WSVrzLF4oXOVV9edRVp8DXQf6ewUDFnAk6/PFjIhIuTsrj+pBDq3rOKC1ECU8PBgXsAKjZAXjp1Td4+ozjzS3T2zOXhyw7Cj7uQR/38kJH0lWn9yrQIQCuTgrzdxy0VRXxh7dT8z0U9vCas0AAWBMA7330qdllelNRptdrPo3xfpMArfriWTrIX9ocm0wBIMd+JZy8Vbwu2q/GM9tCcJKvnQQCIHEBIOf5+1dW6gowltsNlulFvQ/ENA/vevQcpyW99m+TTf5y/KUqSD+8DV9qCjduWgqH8ZDDQADELwB++otf8v4HTLRM0OG+p/J1VkUx11w8G37sIT/GguabVX/IFo2bl7Jwmkrf6mjrHBMEQB8i+o/qwaFA0N5ACgHKjc8QALELgNf+8A6fePIpnJqaqiOoWG4zkJfFgxZNYUl64kasYkzeik1W57v/KQda9qkI/PpvIuplggCQPjwcoYOWBp1enM9tT1yAAOKR1QMEQPcCIFSmt2dRkSXfUu2rofZ2l+l9cDn81iN+a5Uc3f574bD0knwd/rrZFPKXfhwVCgIqn6tWHYNA4pFAAgEQXQBsfGALVw0dpiOQKGmzsH4Q192+EP7qEX91O3GrGl/ViqlK/CsCrx5mkgBIJaI/ReikpcFnD+rN45AW1BNBFQIgsgD4+fMvml2mty/K9KoiC7TjvlML2YN7W+LALjj1/WTe+9+V8FjXRWctGWDE5Sd5ggC97vwQAHsKgLfe+zBYpjc9PcOS/+jwSWkzJQNler3usxh/dMEit7Nr8r81XZFwMt8v13ExYI+mKggAD2wrQgB8LQA+/PSvfOU113NJSS9dwcNauz4fl0waw3JlMwggOgHAPt62T2HDYGu+FjkL51dEVJZMoo927C3KFY/Px3UbcG7R7cEEAuALfnTHTq5vGKsjaChpM3dYGY++FmV63e6LGJ914VJ72wImn0+J33Xi1AeiEXCyPzuoU2eVGKB0cj1WGy7fBfCyAHjxd6/y0dOOZZ+egGHZB9OK87hq+VRcj+NyHwTxWyf+kA1LDhpj2e+64NIDk03y0Y7vJ6I3uuh4wgbxB1Kx5ejy4ONFAfDO+x/xuUuWcWZmZsK+odrXwtvbXaZ3O8r0hgI7ntWRpFttKRVtfQEtiX+EW4VjjX6cER5EVL0un7UfdgFcLAK8JgAkfW95RYWRxC8+G0zfu3ExfM7FPudWAk72uMqmj9Pl16cZzfwdncsioj+rIv5QO6m5mdzy6GoEJJcGJK8IgMd3/oSbW1p1BQjL7eYM6cMjr5oLP3OpnyWbHN1+/JZHVnFqjpY7dz4lomwnCADp4/oQcat8HnDGwQhMLg1MbhcAv33t9zxj5mxjy/QGCnN48JIjUKbXpf7lduI1ZXyV8ydZFuFdcOYFTiF/6WcJEX3ZxUASNlCgIJtFYZky2eiHuvOBbhUAoTK9eXl5CeNetR+FtydFSvpMbebmbefDr0D+wIAFDMgOdaAwW4ef/5OISp0kAKSvN4UHGlWvUSRIHemaJGDcKADu3bSFh1QN1REQlLRZUD8Q6XstBHyT/Ad9SX5c7HfSAUr8MgJXXuc08pf+VhHRfyMMxpKRpNJYyzbsArjN4d0kAJ557lc88UBtW4GW/Ef8MbOiiKsvnoXVHsgfGFCEAdlBk+vUVPMdEf2PiIY5UQBIn7dqMAj3O3F/AFcRcE0REm4QAK+9+Uc+c+EiDqSl6QgEltuUACU7aG07UGXTFNyjH8lfuauYg4pZ4y37ZxdcaVTVv3iFyPguBmXJWKnZGdy8dSVEgItEgJMFwAeffB5M31tUXGwJ1zp8Jdim/+v0vU1bUKZXRbBHG+4gbVXz2LR1Badkp+vy/XHxkq5p339WR2BDXgB3OaFTBcADW7by8OoaXc5vud2CMQO49tYzIZZdJJZVERfaURNDNd73/wvTyDyR/kzXIQBSMtMYKxo1ADYhEDhNAPzqpZeD6Xt1YFtFm+kl+V+n7wXxQfwAA9ow0PTgchYuUuGzEdo4OhHCNe03qUT0doTBWTZa2bQ2bRNrAil6qQ9OEQBvvvsBL1x0DhtbpjcrnfvPO5Bbd6yFb4D4gAHNGOg7tcUyj3XBjX8gohTTyDzR/szvYpCWjOdPS2XJu+wlonTrWE0XAFKm98ZbN3DfsjJLmNXhB8E2fT4uGl/DY+87D/6gOei71Qcxrvh2VBsfWML+9ICueHBKomRr4u/SiOhNHcGv9xGNCHguCHgmC4Afb9/BY2rrdDm65Xbzqit49A2nwg9c4Acg4fhIOJn2Kp3SYNl3u+BE2TEXznTV48QuBmvJiD6/n6X2cjKBgGNbd1oTBcCvX36NZ86eY2z63rSiPB68+HCk7wXxI/7ZjIHaW85g4R4dnEZE81zF/B2DkfMZr+owWEHtADiAzQ6gWvSYJADe+/ATXv/t73JOTo4uB7fUrmw7ls3YB2mxHY551T6E9qwvRGK1oWTR1MFlRPRHN67+Q4Jmhiaj8fCLjocIcHBANEUASJnein79dDm35XaDZXrvQZneWAM1vmcfKXrF1sMumG7Zj6PwoFwv59qHn4h+G2XwCRs2s29PZDiDANiNn+tuvIU/+uyLmP927HqaW1rbdv9eB0attJk9uDePvBJler1CMhinmcKl9fG1nNG7UFeceIeI0l3L/h0Dk3sbtRiw8tSDsAvgUBGQrB2A1/7wDs+dN59TUlK0YNIq1qX2xYAFk7lt5zpg26HYBpmbSeaJzEv/kyfqjBNz3E7+Mj4fEb1gNTBG+n1KVjo3blqKQOnAQGm3AAiV6c3Pz9fp0Am3jTK97iGNRIgGvzFv/hs3L9OZ8vc1IpKcOZ54TIlE4CreK51cDwEAAcDX3nBzl9v/P7znPh40aHDC5KwCp9Ha6NFcxfV3LgKOHYhjELd5xK1qTnodVKszZkz1BPN3DFJ2AbTUCCC/j8fcdDqCp8OCp+p7apcuX7mXAPjpL37J+x+gdQvPUoDIqijmmktmA7sOw64qgkE75oqH0defysIt0YS7hc+e69gZ95IGoEkWDBZ1IvJH9udxu9YjkDookJYdt0/UOY0XK3l5eXznj+4NioBX3niL5516OgcC2rJ2Wep7ak4GDzhzMrc9gTK9IEFzSdCzc7NrPUuyrXhjUBzfP9BTzB822O1xGCmuCahadQwEgIMEgOSv14GFnkVFHEjTVqzDUp8lkUjvKWO56aEVwKqDsOpZIvToHA1ZfpQlP+8mrm0L40PPvRxGRP/uxkAJGT+Qn8VSqQnO6owVRfVFMxOaZx3YsaPN/DGVLNnEgE9n4BPz5M15EnEeKMjWFZu+IqJqz7F+pwFfqSvglkwagwDrENUuhTV04cCkdneX6cUpKvimQ3zTy+KneP+ROuPS9ztxoSf/7UlEn+oK0jWXnoBA45BAk1acp9PZktp2SkYa9587kSWRiJcDKsbuzZW0E+e9+ruzdMaMPxNRoScZP8Kgz9QlANJLC7jl0dUIug4QAX2ObNLpcMlpO1Sm995zgUEHYNCJRIU+qxdVLY+sYtmt08VLRHRqBB707FtSKOg3uozd9+gWBF8HBN+RV83V6XC2t50ztC+PuvoUYM8B2AOJqidRJ9tU82Lkd15K+hOrqpFbIbQEabnaevR18xGITQ/EO9ez1HTQhQO72pUyvVXLp+JWVNPxhv4hJkbAwKhr5um851/i2/6xkqLXvvegriCdPaAXigVFALtpKn3I0iMdKwB8gRTuM7WZW7atQmB1ANZMwz76k/xdiLYdF3BWZYnOGPSA10g9nvEOJqJ/6RIB/U46AIHZ8MAsyXAy+vTQ6YBa2i7at5obUKYX/mW4f0FkRBcZFXMmaIkPHZz2TyIaGA8hevG7l+oSAP5AKtfdeRaClOFBqvpirVffKnXw7IGlPOKKk4ApwzEF4otOfLDPhVy3YSHLLp4u/iGi73qR0OMdcz4RfahrEuTCLKRcNT8Y9Dq4TqcjWm5bEk0NOucwlOkF8UP8uQADsvWfM6SP5bgQhbfeJ6K8eMnQq9+fFsWQliepfMa+cFrDnbZ52/mc1a/Y8lyrxpGU6e07tYWbH14JDBmOIaxqzRf6psxR2fRxumONp6r9qRAum1UH793t+X084nJs25rifF31o2HjYk7rkavbMWNuv6BuINduWADiB/EDAy7CwMgfnMxyp9huflB/N9pDKgjRa22UEdFfdU2KJHnAKs78FYKUdpbtdl04iKXdzPIilqxgXQkVvG8+jjBHmKNIGGjauoI1ZyD9nIj6eI28VY33tFgCdKLfkSu3I4EC75kVLBp+dA5nVhTZLgJSMtNYrgpu3YH0vfAJs3wC86FmPorHj9AdV+apIkMvtuNvT5rwk0QJPpbfDVl2FESAA7bzpLJjYeMQ3c76dft+H5ce2sBNW1BNEkSjhmhgR/PsOPi8I3THk11E5PMicasccxURfRkLmSfyHSnSUv/DRRABDhABEkSHrZ3OqXmZ2hw3d3g5skY6BAsgVfNI1Slz0nD3OZySla4tjhCR3PMv5e7xUGCB8xMh91h/k1tdzm1ProMIcEjgb9y8lPse08r+jIAyB84dWsbV35kJDDgEA04hGvTTPJEit4HL7eCx8kOC31uugPfQRIcF0nQWC5IJrpg9HsHfYcG/cfOy4Dn6rIrEbhcUAVE0voZrLpmNuXfY3INYzSNWp8yJ3AaeIKnH+rtfE1EA7K3WAo1E9B9dEye3gYz4/okgAocSQe0tZ3DlaQdx8f4jObOsJ/vTUvdy1kBBNuePqeS+01qDpxJQJhok4hTSQj/VYLXm0hN0F/oRjmpQS31oLWSBy3UJAGlXCGIs6ra7RgS1PraGG+9fws1bV6Iyn0OFHYhPDfHBjhcGa3XovH6og5suC5EVntVbIIuIXtEpArIH92YhDjgMAg8wAAwAA+7AQOvjazmnSvt5/5eJSDgKD40WqNVZMVDERcmkMRAAWDECA8AAMOASDNhQW+Tf2PrXyPqdml6qcxdA2h587uFwfpc4P1Zx7ljFYR4xj4lgYNCiKXtdD6SBPxZ34ij8q9ECkiBoh4ZJ3A0UKfoy6upTIAIgAoABYAAYcCgGRl87n6UMvE6uIKKdRCSchIeNFuhLRJ/onFipF4BscFh1JLLqwG+AG2AguRiQ24TTi/N1k/9nRFRhI+/hUGEWOFKnAJC2C8YMQJIgh6p/BODkBmDYH/ZPFgYksVv+6Erd5C/tHxPGR3iZBAvcolsESK3oZAEZx0UQBQaAAWAgPgxIplDdvNBe5e+GJPAdDtnJAtlE9JrWyfb5eMhyFA1CEIovCMFesBcwYD8Ghiw90g7yf4OIcjtxEf5NkgXqiUhuw9A28XJR4IjLkCkQAc3+gAabw+bAQGwYGHnFyewLpGjjgQ6O+YqIJDMtHgZZQGvBIJn4lOx0rr1tAU4H4JoAYAAYAAYMw0Dd7Qs5NSdDN/lL+3IbOh6GWSCFiLbr3AWQtjNKC1muLoUij02Rw06wEzAADOjGQOOmpZzeq8AO8t+GW/4MY/6w7vQgojd1iwBJKdmyfTVEgGErAN1BBu2DyIAB8zDQun0N5w4vt4P83yaiojC+wUsDLTCaiP6hWwT0aK7itp3rIAIgAoABYAAYSBIGJAb3bBtmB/l/SUR1BvIduhTBAjN1CwBpv+/RLXD8JDk+VmLmrcQwJ5gTuzHQ56hmO8hfjjEnAs/gLYMtcJ0dImDggkMgAiACgAFgABiwGQOVp3/LLvK/0mCeQ9e6sEA6Ef1ctwjw+f08/MIZcH6bnd/ulQaOh9UtMGAOBoZdMJ3J77NDAPyUT93AjgAAFFtJREFUiNK64Bi8bbgFehPR+9pFQCCFay6eDREAEQAMAAPAgGYM1Fw2x44CPyIuPiQiqTmDh4MtMJ6IJHGDVrXozwjwyB+cDOfX7PxYhZmzCsNcYC7sxsCoa+ZxSkaa1ljewRXCGfs6mPfQ9TALSK1m7aCRREGjbzgVIgAiABgABoABxRgYff2pnJKVrj2Od3DFwjD+wEuHW8BHRPfYIQICeVnIFqjY8e1eZeB4WNkCA2ZhoPbWMzk1L9Mu8v+hw/kO3Y9ggUwiesYWEVCYzXV3nIUVAIQAMAAMAAMWMVB/19mc1iPXLvJ/loiyIvAH3nKBBSSLk1Rx0g6m9OJ8brhnMZzfovNjJWbWSgzzgfmwEwNj7z2X00ttSfErnPAHIipxAc9hCFEsMIiI/myHCMjo24MbH1gCEQARAAwAA8BAnBiQ2JnRp4f2xVoHF3xCRFVReAMfucgCcnXnP+0QAVn9S7jpweVw/jid385VBo6FVS0wYBYGmrYs56x+xXaRv6T5bXMRv2EoMVhgGhH9zxYRUFHMjfdjJwBB1qwgi/nAfJiIgcbNSzm7spdd5C8ccHwMfIGvuNAC59shAOQYUka44e5zsBOAnQBgABgABrrAwNiN53Jm3552kb8cZ6kLeQ1DisMC19olAtJ65nLdhoVw/i6c38TVCPqEVTIwYA8G6u9cxOkl+XaS/01x8AS+6lILBIhou10iIFCYw7W3nAERABEADAADwEAHBupuX8hpRXl2kv8jRJTqUk7DsOK0QB4R/douEZCam8mjr50P5wcBAAPAgOcxMObG01gSqNkVf4not0SUHydH4Osut4AUfZD7QG0BYkpmGo+4/CTPOz+2V+3ZXoWdYWcTMTDyqrksKdTtirvtF/z9noj6uJzLMLwELVBBRG/bBUYpIFTzvRMgArAKBAaAAc9hoOaS2exPD9hJ/u8SUWWC3ICfecQCQ4noI9tEQCCVh6+f4TnnN3E1gj5hlQwM2IOBYRdMZ18gxU7yl9K+QzzCYRimRQuMJKJP7RIB5PNxxZwJEAFYBQIDwIDrMTBgwWQmv89O8v8LEY2xyAn4uccs0EhEX9gmAoi4dEoDtz25zvUBAKsse1ZZsDPsbBIG2nau4z5HNtlJ/HKsvxJRg8e4C8NVZIFWIvo/O0VAYeMQbnlkFUQAVoLAADDgGgy0bF/NPVqH2k3+/yAiSfuOByyQsAUm2lU3ICQ0sgf1RupgBH/XBH+TVqHoi/27Io2blnLO0L52k/+/iOjghKM+fggLhFngcCL6KkTQdjxL6mBJjoGAZX/Ags1hc2BADQYk86mN5XxDIuM/RHR0WPzGS1jAsgWkYMR/7SD/0DFSczJ4xBXIFYBgrCYYw46wo50YGHHZiZyanREiZbueJUbPsBzt0QAsEMECxxLRv0MEbcez3CpTtXwqdgJwSgAYAAYcg4Ehy45iX6qtt/mJwJCV/+wIcRtvwQLKLHAkEcn5JbsULcttgmXTx+EOARCAYwjAzpUmjmXOzobcxdR3Wqt9sfGbOPxPIpJTtXjAAtotMJ6I/marCCDi/FH9WWplI+CZE/AwF5gLYOBrDDQ9tIIL6gYmg/z/TkSTtEd9HAAWCLPAuI57TG0FfFpxHgoJYScAIhAYMAoDUtAnCRf7SeyVhdiEsLiMl7CAbRaoI6JP7N4J8AdSWbJpYeWB1ScwAAwkGwODFx9ud1rf0KLrMyJqsi3a40CwQAQLVBPR+3aLADleyaQx3PrYGggBrAaBAWDAdgy0Pr6WSyfXh8jY7mfJ7T8qQjzGW7CA7RaoIiKpNGW3E3DO4D7ccM9i250/2asOHB8rX2AgeRgYe995nDu0zPZ41xFjZcElCy88YAFjLNCv/f7TN5IhAgJ5WSgrjBUgRCAwYAsGJDdJoDA7WeT/FhENNCbqoyOwQJgFyojopWSIAJ/fzxWzxuNWQZCALSSA1XfyVt/Jsn3bExdw+Yx97a7kFy40fk1EfcLiLV7CAsZZIKe9+tTDyRABckzZlqu/62yQAIQAMAAMKMOAnGbMq6kIJ2O7X28nonzjoj06BAtEsEAqEV2bLBHgTw/gLgEEf2XBP1krThzXjF0GyUSakplmN+GHH+9mIgpEiLN4CxYw2gIL7a4fEC46ivap5qatK0AEEAPAADAQNwaaf3w+F+8/MpyI7X79v/bovsboCI/OwQLdWGAqEX0ZTsx2vk7rkcs1l8yO2/mx+jJj9YV5wDwkAwMjLj+J04vz7Sb88ONJat/juomt+BgWcIQFmonoYzuJf49j+XzcZ2ozt+24AEIAK0FgABjoEgNyoV/FnAnJvNBPRMCnRLSPIyI7OgkLxGgByRXw+z2I2ea8ATlD+3LdHWd16fzJWGngmFjhAgNmYKBuw0LOGdInfBWejNdyK/XgGGMqvgYLOMoCPdvzVj+VTBEgJTrLZuzDrTvWQghgJQgMAAMsq/7KeZNYUownMza1F/T5GRGVOCqio7OwQJwWyCSiu5PsaJxd2QtFhRD8IQA8joFR18zjrP4lySZ+Of6dRJQRZyzF12EBx1rgFCL6d1KFgM/HpVMauOWRVSACjxMBtuHN2Ia3ax5at68J7gRKArGkxiCir9ovkl7i2CiOjsMCFiwgJYU/SLIDclpRHg+/cAZEAEQAMOABDFRfPIvTexUkm/jl+HJhNEr5WiAQ/NT5FuhLRM8kWwTI8YvG13DTg8tBAh4gAbtWmjiOOTsLTVuWByuImhBriOhppPV1PnlhBGoskJbMzIHhASGQn8VVK4/mcbvWQwhACAADbsDArvU8ZPlRLEXDwn09ia+vJCKJeXjAArBAmAWOJ6K/J9ExdwcIqSkw6tp5IAA3EADG4Fkcj7nxNM4b0W+3Xyc5tkhCtBPD4h1ewgKwQCcLjCaiN5PsqF8HDJ8vuGXYuHmpZwMotrDN2cLGXMQ+F42blgYv8CW/zxTyf6e9SFpDp1iHf2EBWCCCBSRfwCNGiAAiTslIC2YHa30cuQNAQrGTEGxlv60k2+eABZM5JTvdFOKXfvyYiHpEiHN4CxaABbqwQEr7bYLLk36rYFi2woy+PXj4etwtAGKzn9hg8+5tPmzdcZzRu9Ak4v9Xxy1+/i5iHN6GBWCBbixQT0SvmbIbIP0oGDOAa285A6cFcG4dGDAAA5Leu3DsYJOIX/oipzGlBgoesAAsYNECOUQkNbGNcXJJINJ7ylhufGAJSMAAEsAKufsVstts1Hj/kuB5fgOS+XSOSzcQUbbFmIefwwKwQCcLHElEnxglBAIpwSAkFx25LcBiPN4jVSfMedNDK4JZ/Pzpgc7Em+z//0JEx3aKWfgXFoAFFFqglIi2mSQCpC9yoaCUHG7cvAxCADsCwIAGDDRtXRG8GNewC/xComMHEUlSMzxgAVhAswV8RLSQiOQim/9v79xj5KrqOP7dd3fX3WWh2+5W2u5225SyW5Dd7pZulwot0AfvhwXEAltCrQVblIK1Ai2lxgYtBCUmxsgrDYHyaKvhUYikNf4hURIlMSYq8fFHxQda/EOjosf7PT1Tl3GmM3tnduecO9+bNLOduffOuZ855/f7nXN+j9QA9OK1qr7Wzk4WvXSPlMA4KIEQZqhqY3FXTlirg9X6qhsneTHG02QO65lsByBHv3EW+rq9CKQT6AXwVtqA9EJIVDXUHTMEXpYhIIVYXIVYLjyHDm47pvib6r0Y0xnkzM8A9KULJf1fBERg4gg0AHgIwPsZBmjJBUfNSY2ma8MKQ2FWLoJbzymFX0gfsDP+9csN03L7OKadrNkNgLJHhwiIgAcEzgLwpqcCwyYmoY/A4HN3yRDQ1oD6QIY+QP+ZGSNLTXWztzN+GiRccRz0QN6pCSIgAmkEql3iDebc9nL2UFFTZdML9z2+UUoggxIoZOaoa8Nceeh77NM2kqayttrLMetkCWUK9/pVxCdN6Oq/IuAbgdkAXvfVCEi1i0VKer60RpUHZQiUpTF45iPrzMlDpxlUeJOvP5sBwtK983wTcmqPCIhAdgKMFLgBwLsphevra+PsDjN369Vm+PUdZakINHMPc+Ye53djH59333Wmad6p2ZStT+8fddFG8vDPLmf1iQh4TeBUAAd8Vf6j21U3pcV0fvJCo+qD5aMQ4yjREK9hn+5cd6Gpa2vxScGfqC37AEzzWrKpcSIgAnkTWA3gndEK19e/K6qrzOQlPab3gRvNOYd2alVAWwRB9oHhQ/ebngduMKcsOd2wT/s63tLadQTAVXlLFZ0oAiIQDIEWALt8TCCUJoSOC8vatmabT2Bg7+YglUCIs1W1ubAVGNbHYOKeSe1eVeY7PqayjDUm9HkYQHMw0kwNFQERiEVgLoBXsgiCXIKiNJ9XVpiTFnTb/VP5ChSmoKTgi8+Ps/35D641k8/rNRVVlaUZI/Ejf74DoDuWJNFFIiACwRLgtsBvgzIEAFN7SpOZvuZc07/ndq0KaHugpH2g/8lNZvr1HzW1JzeFpvTZXsb0LwtWeqnhIiACBRNgNq/PAXgvNEOA7W3onGKTpyzY85mSKgLNqos/q/aVKbejZm28yDCMNcQx4yKDWEuEeUN0iIAIiAA6AHzD15TC+Qja48bAU5+VMaCVgaL2gcFn7/yf0vc/bj+bYfIvN8YnS96JgAiIQCYCTPjxYj4K1+dzUsbAwNN3FFUR+DorVbuKvwIx+PxdSVD6KWPgNQAsHqZDBERABHISWO5zbYG8jY/KCtN8xkzT9akVRumHi68kk2Z4MC1v1/rlx5b3w53pp5Q+X38I4IKco10niIAIiEAaAWYTvMTXksN5GwGjvKNrWj9kaxEwG9uil1SqOGkKfKzPM/TqNpuOuv3SAcNEVHH6lKfXsFTvxwBwDOsQAREQgdgE6Cx0c4gRAycSzkzO0vKRLhuz3ffobdoqKAe/gcM7Td+3brNZ+VrO7AwxZC+XkfJrACMAqmKPdl0oAiIgAhkI1AHYkDRDIGUkMOlQ+0ULzNx7Vxs6fY11Nqnz/dxiGNx7p5l7z2ozdVW/DSFN/d4Je/1NlOlzvar1ZZBaeksERKCoBFgSlIWGfpkwIfqB2RXzDbBaG7O6sXLb8HdVrMh3I4cJefqf2GTmbL7cbvVM6ggqG98H+l+eY4uKnyF9k4o6wnUzERABEchBgIYAZx2/ylNYxRFw3lxT1VBnWhfMNjNHltmsb0MHt2mVoMTbBkOv3Gt6HxyxuSCYKbKqvtab/jLOY+JtALdoxp9DQuljERCBcSdAH4FPJMlZMB/hzZSvjXM6zNSVfWbWrausUXD2ga0yCsbJKFi4//NW2XfdutJMXdFn2VdUBpd2t1AD5Q3n3Kc9/nEXa/oCERCBsRIYBsDc4oUKumCvr26qt2Fk065eZJeiuX2w+NXtMgzyNAxY64HL+IzUmDGy1G7DcDumjPvUv92YOn+sg1Hni4AIiEApCAxFiUeeCzmzYDEVDlcLGma22TLHH75msem+/RLTs2uNVXTlaBww/I5Kngy6N11syIRlcxtmtCXRMz+u8fJ3l7mPxbt0iIAIiEBwBDoB7AZwtJgKNWn3Yn6CptOnm7ZlZ9jiMnRi6919k1WSdlvh8M5wVhAO7zRsMxU8n2H25svsM7UtnW+fsaa1Ma5CLJfr/ghgB4ApwY12NVgEREAEMhBoArARwC+Sprwn4nm4gsBl8MbudtM6MMcaCh2XDVrFyigFGgxcMu/9yk1m/kNrzVnf3GCY1Y6pkBfu32IWvXj38X+LX/v/7Qi+N/qchfu22Gt5D96L9+z98o3mtPuutd/F72QVPLaBRgvbxLaxKl4Z7ssXyzD5uQuzZYEuHSIgAiKQOAKVALiXuRcAi5MUS3jqPmIZYh/g/j7z9DNrnxz7Eifu9EAiIALZCLACIUsRM5Y5ROGtNut3i9sHjkSx+7sAzMw2OPS+CIiACJQDAYYRXg7g21oVkCGUYGPwnwD2A7gUAPu8DhEQAREQgVEE2l1msx8nWBHEnTXqujBXHFiYhytdU0f1c/0pAiIgAiJwAgJnR57QXwdAr2gpPzEIqQ/8AcAjABaeoH/rIxEQAREQgRwE6BxFx8EnAfxVxoCMIU/7wN+ccytLaNfk6NP6WAREQAREYIwEGgF83O2lMlFKSLNCtTV5vxeV/j4A1wFQ+N4YB7NOFwEREIG4BOoBcLallYHkKVafjSUqfaa7ZkXM5ridV9eJgAiIgAgUhwCNgSsAPB4lU+H+q88KRG0L7/f5fRSy95iLVmFf0yECIiACIuAhASYb6o/atR3AjwD8RwaBDKIYfeCnLlaf/icK2/NwoKtJIiACIpCLwAwA61xxoj/HUASasYc3Y4/zm73rnPhuATA9V6fS5yIgAiIgAmERYEQBQ7PuBnAYAJOzxFEWuiZ8bv8AcChKPvUFAANKxRvWQFZrRUAERKBQAvTcHnaJWpiTnQ5eUu7JZEBjj1tCTMFL51E58BU6enS9CIiACCSIQB2Ac6KVga0uNTGdv2QQhMngHQAHAGxxRl5tgvqpHkUEREAERGACCHRHZYyvB/BVAG9EqwXKP+CfQcCVmx8AeNjlieiagH6hrxABERABESgzAvQI73ElXBlpwJhwhR5OnFHwXpQZ8vtO2TMWnxEfXLnRIQIiIAIiIAIlIdDqlpoZccCZKH0KZBjENwyo6Llnz0RPLKbDfftZACpK8uvqS0VABERABERgjASmAVgCYG2UI/6LAJ6JlNmbAI7KvwB/cUr+acdmxPlgdIyRsU4XAREQAREQgaAI0BOd2wmrXK6C+wE8AeAggLcA/C4KWXw/QEOBbT4SZWf8iXsWPtMO94wr3TM3BfVLqbEiIAIiIAIiMMEEuOTNWvK9Ue6C8yLD4EoANwO4I4pdp8HAsrN7ALzgth2+52bVrEP/NoA/AWACpNS/TKGOfC/1OV95Da/lPbgMz3tyS+N5911fc9/NNnBlg21i22jMTNEy/QT3EH2dCMQg8F/+QACUC0ZxvAAAAABJRU5ErkJggg==;" parent="1" vertex="1">
            <mxGeometry x="110" y="320" width="100" height="100" as="geometry" />
          </mxCell>
        </object>
        <object label="End" mapping="type: End" id="end">
          <mxCell style="shape=image;verticalLabelPosition=bottom;labelBackgroundColor=default;verticalAlign=top;aspect=fixed;imageAspect=0;image=data:image/png,iVBORw0KGgoAAAANSUhEUgAAAgAAAAIACAYAAAD0eNT6AAAAAXNSR0IArs4c6QAAIABJREFUeAHtnQeYLUWZv7/JOc+duRPu5BzOXAQlSTAgBjCju+oKi65hFVFBdFkDuCtiXMyCriiIGVTABJIURQQRBBSUJPECF9hVQQxQ//lmz/AfhjMzfU5XdXd1v+d55pl0TnfXr7/6fm9VVxDhhQIogAIogAIogAIogAIogAIogAIogAIogAIogAIogAIogAIogAIogAIogAIogAIogAIogAIogAIogAIogAIogAIogAIogAIogAIogAIogAIogAIogAIogAIogAIogAIogAIogAIogAIogAIogAIogAIogAIogAIogAIogAIogAIogAIogAKZV6BdRKZEZA8Reb6I/IuIHC4i/ykiHxORk0Tk2yJydv7rEhG5VEQuE5Hr81+3iMi9+a8HRcTkv/684u83r3i/flaP8fMVx/2WiHxBRD4qIu8WkcNE5JUi8jwReaKITIpIa+bvFgKgAAqgAAqgQAAFOhbNewcRea6IHLpooMeJyDdF5BeLRn+biPx1hVkvm3bSv/9lEQxuFREFkVNF5MOLkPGGRSB59mLZFoCEAFHBW1AABVAABbxXoDLfMn6hiLxFRD4uImeIyFWLLeg/emjutuDjfxZ7Dq4QkdPzPQram6A9CWOLvQvl3t91CoACKIACKJApBXpF5Kn5lvzxiz9fuGj692fY5EuFBe1BuFpEvrYYPUct9obsv/iYY0REyjIVTRQWBVAABVAgcQrULj4X311EXicin84bvbZoSzU8PhdMOx3DcIGIfFJEXiMiu4hIdeKigwtCARRAARRIjQLastdW6LF5s9eBc5h2MjT4W36w4kdE5OUiMpSaqKMgKIACKIACkSqgz+xnReRV+dH1N2D23sHO7flxFm/Nz06oiTSCOBkKoAAKoIAXClSJyJ75KXU/EZGVU+Ro5SejlR/2PjwgIj9aBLl3iciuIlLhRWRykSiAAiiAAtYV0AFl2sLXQWb30cL3roUfFgh09oXOxNAYGLQeXRwQBVAABVAgMQrU50fn6zN8XdwmrIHw+XRpqIsl6ayNAxbXLGhOTNRyISiAAiiAAiUpoPPJ9Rnw+Z4upgNkxAMZ+ghIV1R8M70DJdU7PoQCKIACsSgwnJ+Dr/PvH6alT0+HhRjQ9Qh0LYKJWCKak6IACqAACqypwErTp9UcT6s5K7ovw4DuecALBVAABVAgBgV0mp5272tLPyvmQzmTda+XYUA3aeKFAiiAAijgUIHNInJEfolYzDBZZpj1+3G5iLxxcZ+HTofxz6FRAAVQIFMK6KYwura+TtfzcVe8rBtj1sqvexjo9EKdTaALSvFCARRAARQoUgEdcKUDr35PFz+PODyNAd3KWaedjhYZ+7wdBVAABTKngG6woy0nnYLFCH66+NPSe6CxrGNVdNGhhszVagqMAiiAAusokBORE0Tkfz1t6aXFqCiHe+jS3Qw/LiLT69QH/oUCKIACqVZA93XXZ/v6vJTWvnvjwdyTpbHGvPZ06Q6TWhd4oQAKoEDqFdAleXUf92to7Rf3bL+mrMz0VFWZ2dpa88TGRvPc1lbzis5Oc3h3tzmmr898amDAfHVkxJw2MmLOGBsz505MLH1dPDVlfjE9vfR1/dyc0a9b5ufNPQsLS183z88v/U3/vvy+n01NPfL500dHl475leHhpXO8p7fXHNbdbQ7u6DDPbmkxuzc2mpnaWrO5qsroNXJfi7uvIvIrETlYRNixMPXpjwKiQDYV6BWR94jIdgzisQZRXVZmhmtqzF5NTeblHR3m7T095viBAfP9sTFzxfT0owx72biT+l2B4vLpafPdsbElYDhy82bzsvZ2s0djoxmqrjZVQMJakLRtsTfsnSLSlc0UQalRAAXSpsAOInKSiOj0qLUSXyb+riY/X1dnXtTWZt62ebP55MCAOXNszPxqZsbcnW+NJ9XUbV7XXbncEiBoz8IntmwxR3R3mxe0ti71IgAHS3XkzyLyGRHRxa54oQAKoIB3CjxZRM7Nqun3VlWZfZqbzaFdXeaEwUFz4eSk2ZbLPdLtbtNQ03SsO3I5c8HExFLPwSFdXebJTU2mu6oqE4BYoK7oOIHvL44V2N272s8FowAKZFKBvUXkggLJLLVJfKymxrykvd0c29dntFWrz9LTZMpJKMtvZ2fNt0ZHjY4/eHFb29LjkizFmIj8YPFr10xmFAqNAiiQeAW0laKjmlNr9Fq2yrIys1BXZ17V2Wk+Nzhorp2dxexjenxxzeysOWV4eKmXZeeGhqwMQNT1BPZKfDbgAlEABTKhwG75qXypNP6mioqlgXn6nFpH19+2YvR8ElrGXMP/zWRQHfQRi8580BkRz2ltNe0VFamMyTxkK2w/IRMZhkKiAAokToFUtvh1oJ6OVj+qp2fpuT0G+/8N1jctdGDleRMT5h09PWbXhoal3psU9lDpOho7JS47cEEogAKpVGDn/PPI1LSutlRXm4M6OszJQ0NGp7D5ZnRcbzBIuWFuzpw4NLQ0JVHXLEgRDOhgwdNFZCGVGYdCoQAKxK5An4gcLyIP+Z449Tm+PjN+Z0/PUpfx9pieYWPcwYzblU666JE+LtC1F7Tnx/e4ztdNnXLbE3u24AJQAAVSoUCjiPyHiDzgc4KsLS83+7W0mM8ODtLKB3ge08tz49zc0tTDpzc3p2Ew4R8Xt84+UkTqUpGBKAQKoEDkCuj65Lozn7fb8eqytPs2Ny8tuHMTU/MeY3quWta+H1cfFegiTRo7nvcM3CIiL2evgchzJydEAa8V2EVELvKxxV+R797Xrl2dO+67GXH98T4m0DUdlmHA41UKf85iQl7nYy4eBSJRYFRETvXN+MtElkbuf2TLFnMdLX2gx9EjDl3z4YP9/WaXhgYfxwvoQMFTRGRLJJmEk6AACnijgD7n/4Bv6/V3VVaaN3Z1mUunpzE9R6ZHD0ThHgjdLfFfN20yHZWVvsGAjuV5N+MDvMnNXCgKOFXgmSJyky+t/nKRpVHbugofa+sXNidMOzpddO8CjUWdSaA9Ub7UIxG5XkT2cZpZODgKoEBiFejO79LnRdLSDWF0Y53LaO3T25HQ3o4rZ2aWppb2V1d7UafysPI1EelMbJbiwlAABawqoKP7Xyki9ya9taKtfR2J/aXhYaNbyNKyja5li9ala609UycNDS3tZOhJr8CdIvJSq1mGg6EACiROAR3kl/gNe3T63ova2sxPJycx/YS2dgGEYIBwydTU0sZRug5F0oF7cZOh80RkInFZiwtCARQIpUCViLx18evPSU5CnZWVS938V8/MYPwYf6piQGcQ6IZSHmxQpIMEjxIRzRm8UAAFPFdAd+u7KsnGP1xdvbQk662sw58q06OX4LG9BLfMz5sP9/ebsZqapPcIXM5ug55nfi4/0woowSvJ/z2p5r9QV7e0yArP9x9rFJhnujXRnQpPGR42T0j2mgJ/E5Fj6Q3ItI9QeA8VmBGRXybV+J/U1GR+MD5Oa5dufmJgYcGcPjpqdl/cgjqp9TW/KuiYh3mQS0aBTCmgI/xfJSJ/SmIy0R34vj06StLH+ImBAjHwnbGxJIOAjg04NFPZlMKigEcKdInIGUk0/p3q65e6O+nWTne3NvfXzv09bWTEbK2vT2qPwGmsG+CRK3CpmVDgGSJyR9LMf6a2dmmVtO0FWjuYhR2zQMf06qggkKurSyIIbBORZ2Uis1JIFEiwArrf90eSZvyTGD9d3ECflRhQeNbBgrO1tUkDAd1c6HgRqU9wfuTSUCC1Cuy8uHrX75Jk/j1VVeZTAwNGRzjTMkUDYsBeDOhMmeO2bDGbkrf5kE4xXkhtlqVgKJBABXSg31+SYv7VZWVLq539nnn8gA/w5zQGdB0BXVBIV8tMSv0XkQfzg48TmCq5JBRIjwLa5X9igir+0lr9bNBjr6VHqxktg8TApVNT5jmtrUmCAL2Wk9hmOD1mQ0mSpcC4iPwqKeavg5POGBtz2toJkgh5D4aZ5Rj41uho0sYHXCYiw8lKnVwNCvitwH6Lc3DvS4L561rmx/T1sTsfXd3AX0Ji4M5cbml5Yd1LIwk5QkS2Ly4etK/fKZerR4H4FagQkWNEREfcxlq5K8vKzOs3bTI3zc2R+BOS+LPc8qXsj+35uW5uzryis9PoNtpx54v8EuRHioguTsYLBVCgSAU6ROQHCajIZq6uzpzD0r2AD+DjRQycNzGRpPUDzlycqtxWZO7j7SiQaQUeJyI3xm3+uoe5jjjelst5kfhoFT62VYgm2dRE6+w7e3qSMltApyvnMp3RKTwKBFTgoPy0mli78fZobDQ60hgDyaaBcN/Tcd9/OjmZlB0HdX+SAwLmQN6GAplTQJ+V6fa9sRp/c36QH4v5pMMAMHLuo64m+OH+ftNUURFrbsmPZdIcxwsFUGCFAjUicnLc5r9vc7O5cmaGVj/PuomBFMbAr2dmzH4tLXFDgJ7/v0WkakX+40cUyKwCOtjvR3Gav04fOmloiKSfwqRPDwA9AKtj4ITBQdMaf2/A90WkObNZn4KjwOLKWSMi8ps4zX+vpiZzNa1+4Af4yVQM/GZ21jylqSnu3oArRWQAJ0CBLCqwi4jcGZf561riOkqYZ/20EFe3EPk9GzGhYwN0US/dyyOuPLS4h8DtIrJjFg2AMmdXgReIyANxVTrdrvf8iYlMtXgwtWyYGve5+Pt87sSEGaupiRMCdIbA/tm1A0qeJQUOFZGH4jD/MhFzYEeHuZVd+4AfuvyJgRUxcNv8/NKOnnHkpfw5/y4ih2TJCChrthTQZX0/HVcF66qsNF8bGSHprUh6tBaLby2iWbo1O3loyHTEu6fAB1g+OFvGmIXSVovIV+My/6c1N5trZ2cxf8yfGCAGNowBHRS8Z2NjnI8EdJqgNph4oYD3CtSLyPfiMH/t8j+0q4uBfiT9DZM+Lft0t+yLvb86QFAHCce4sdC3RaTW++xPATKtQKuIXBiH+bdVVJiv0+WP8QE/xECIGPjS8LBpiW/NgPNEpCnTDkLhvVWgW0SuiMP8c3V15rLpaRJfiMRXbIuJ99OCTmsMXDw1ZXTmUBy5TER+xm6C3npgZi9czV8XuYi80hzQ1sYof4wf+CMGrMbAzfPz5rmtrZHns3wO/aWIdGbWTSi4VwpsXtz16uqozb8yv7BPWlshlIsWNjEQfwzopkJV8Swc9GsR6fHKCbjYzCmgy1rq3teRkvLmqirzvbExq8RPso0/2XIPuAdJjIEzxsaMTiuOOs/ll03vzZyrUGAvFBgWkRujrhSPb2gwuq53EhMF14SBEQPpjAHdNVTHGkWd70TkWhHp88IRuMjMKKABeX3UlUG39mRVv3QmWIyT+5r0GLhlft48vbk5Dgj47eKiavqolRcKxK7Apjie+b+qs5P5/Qz0oueHGIg1Bu7K5cy/dHbGAQG/EpH22LM/F5BpBVoWN7H4RZQt/4qyMvP+vr5YK33SWyZcH61nYiDaGNBdBWNYNEinCLJOQKYtOL7CN4jIj6M0//rycqMLc5Dcok1u6I3exMDGMXDS0JCpKy+PujdAF1rTXMwLBSJToE5EdJWqyIK9u6rK6LadJKKNExEaoRExEE8MnD0+bjZFP0PgLBGpiSz7c6JMK6Ab+5wZpflP19aaK1jZD/jheTcx4EEM6CqkE9GvHPhNEanMtDNReOcKaICdFqX579HYaG6amyPxeZD4aHXG0+pE9+Tpft3cnNmloSGyHtJ8Tj5ZRMqduwAnyKQCGlhfjNL892luNrfNz2P+mD8xQAx4FwM6RflJTU1RQ8DnRKQskw5FoZ0qcHyU5v+c1lazLZfzrtLTGktea4x7wj2JKwZuz+XiWCvgA06dgINnToF/j9L8X9jWZu7E/IEfWr3EQApiQNcKeHFbW9Q9AYdkzqUosBMFDhCRh6MCgIM6OljgJwVJL64WF+eltZ/EGFAIeFl7e5QQ8JCIPMeJI3DQzCjwRBH5c1Tmf0hXl9mO+dHqIwaIgRTGgOa212zaFCUE3C8iT8iMW1FQqwqMiMidUZn/oV1dJL0UJr0ktsa4JnoJ4oyBI7q7o4SA20VEd2nlhQKBFejI7zrlPFDLRMzRvb2YP+ZPDBADmYmBd/b0OM+tKxpvV4lIa+DszxszrYAu9HPuiuBxGqhaEeKkcc5Na5AYIAbiiIEjN292mltX5fDvs1BQpn09UOF1/qguJhFJYL5182bMn1YfMUAMZDYG3tjVFUmuzef0zwZyAd6UWQXeE5X562CYOKibc9LaIwaIgSTFwOuiHRh4RGbdjYKvq8A/R2X+r+jsZLQ/rT4AkBggBhYWlnLhS6ObIqjTA3VqNy8UeESBXUXkwSgAQBfEuJvER+IjBogBYuCRGNCc+ILW1qgeBzwgIjs+kv35IdMKbBaRW6Mw//1aWljhj6T3SNJLUjcs18JjgbhjQBcL0iXQo8jFInKTiGzKtPNReKkSkR9HEXBPbmoyui523JWM85PoiQFiIKkxcEcuZ54a3QZCP2RmQLYp4DNRmP+ejY2YPy1/4I8YIAYCxIDuIhjhVsIfzLYFZrf0r47C/Gdqa81Nc3NU/AAVP6mtEq6LFjMxEG0MXDc3Z8ZraqJ6HPCP2bXBbJZ8QUR0IIjTAOuuqjJXTE9j/pg/MUAMEANFxsBl09NmU2Wl0xyd94A/ichMNq0we6XWJSGvd23+deXl5uzxcSp9kZWella0LS30Ru8kx8A54+Omvrw8Cgi4RkSasmeH2SqxrvR3qmvzrygrM18cGsL8MX9igBggBkLGwJeGh43mVNd5W0S+lC07zF5pD48giMz7+vqo9CErfZJbJVwbrWZiINoY+I/e3igAQM/xL9mzxWyUeBcR+atrAHg9S/wCP8APMUAMWI8BXUHVdf4WkT8v9hLPZ8MSs1PKhii2992/pYVV/kh81hMfrc1oW5vonUy9daGgZ7S0RAEBV4tIXXbsMf0l1V2gnAbOTvX15rb5eZI/AEAMEAPEgKMYuGV+3izU1TnN5Xmv+HD6bTEbJXyua/Pvqqw0V8/MUOkdVXpaZMlskXFfuC9xxMCvZ2aMTrF2nNcfFpFnZMMi01vKLhG502WgVJWVmTPHxjB/zJ8YIAaIgYhi4LtjY0Zzr8vcvjgg8DYR6UivPaa7ZDrl7zuOA8S8nxH/JL2Ikl4crS3OSSs/qTHw7mhmBpyWbptMb+ne4Nr8D2hrw/wwP2KAGCAGYoqB50Wze+BB6bXJdJZMl3V0utTvXF2d0U0rkkrHXBctN2KAGEh7DOigwOnaWtePAnSp4PF0WmX6SlUjIr902fpvragwv2CNf+AnplZP2pM65QNciomBS6amTHNFhWsI+LnI0vbx6XPMlJXo/S7Nv1zEfHVkBPPD/IgBYoAYSEgMnDI8bMocT/UWkXemzCtTV5zdROQhlwBw5ObNVPqEVPpiWgm8l1YlMZDuGHhzd7frXoC/icjW1LlmSgpULSJXuTT/fZubzXbMDwAiBogBYiBxMaArBe7V1OQaAi4RkYqUeGaqiqHdM85ufmdlpblmdjZxQU+rJt2tGu4v95cYCB4DuiBbR2WlMx/Ie8ybUuWcKSjMRH4TByc3Xp8tfXl4GPOn1UMMEAPEQMJj4OShISc+sKKBeb+IDKfAN1NRBF3w55wVN8f6zX91ZyeVPuGVnlZS8FYSWqFV2mPg5R0d1n1glcd8NxXumYJC6P7Nzm72ZG0tm/xg/gAgMUAMeBQDukbLeE2NM1/Ie86LU+CfXhdhs4jc6woAasrKzAUTE1R8jyp+2ls2lI/WOzEQLAbOm5gw1W73C9gmIm1eO6jnF/9VV+avxz2Gdf6BH+CHGCAGvI2Bd/T0uO4F+IznHurt5etWjc5u7t5NTUz5I/F5m/hoJQZrJaJTunW6e2HB7NHY6MwnFhcH0m2Dn+yti3p64Q0icoMrANBpJLrnNMkh3cmB+8v9JQbSHwNXzcyYNrdLBV8rIrWeeqmXl/0BV+avx/3C0BDmT+ufGCAGiIGUxMAJg4MuewH02CwTHBFKjIjIg64AYP+WFip9Sio9rbv0t+64x9zjoDHw9OZmlxCgu88OROSBmT7NN12Zv+4opd1FQQOK95F8iAFigBjwIwaumJ42jeXlLiHgC5l25ggKv7cr89fjHrdlC+ZP658YIAaIgZTGwLF9fS4BQAcEPj4CH8zkKcpF5FJXALB7YyOj/lNa6Wmh+dFC4z5xn1zHgM4K2KWhwSUE/FREdHVaXpYVONiV+euCPz+bmoL6AQBigBggBlIeAxdPTRnN+a78REQOsOx9mT9co4jc7uqGvaunh0qf8krvumXB8Wm9EgP+xMAR3d0uAUCnqDMt0CK2/Kcr85+rqzPbcjkAAAAgBogBYiAjMXBHLmemamtdQsBbLfpfpg/VLyK6/aL1m1VZVmbOZa1/kl5Gkh4tVH9aqNwr9/fqrPFxU+HuUcAfRKQn085tqfCnuDB/PebrNm3C/DA/YoAYIAYyGgOv6Oy03rBc4VcnWPLAzB7mCfm1lq3fpE2VlebGuTkqfkYrPi0s9y0sNEbjpMfA72ZnXS4T/HcRmc+se1so+FkraMoqBHyEOf/AD/BDDBADmY8Bx2sDnGbBBzN5iN1cmf98XZ25i4F/ma/4SW+dcH20oIkB9zFwZy5nZtwNCNTFgXbKpIOHLPQPXQHA6aOjmB8tH2KAGCAGiIGlGPjm6KjVHuZV3vWtkF6YuY/vvkpAazfnua2tVHoqPTFADBADxMCjYsDxZkEsEVwExpzrAgB09adfTk8/6qbTxea+iw2N0ZgYIAaSHgOXTk+7XCHw9CL8L9Nvddb6P6y7G/OH+okBYoAYIAYKxsDrN22y1ttcoBFLL0AAtDmvgHChb0pPVZW5eX6+4E1POplyfbSeiAFigBhwHwO/n583XZWVof1mDQ87I4D/Zfotzrb7/eTAAOYP9RMDxAAxQAysGwP/1d/vCgD0uLq2Da81FDh/DXIKdUN0zWfdBhKCRgNigBggBoiB9WJAp4iP19SE8px1fOw7a3hf5v/85HVEC3UzThoawvwBIGKAGCAGiIFAMXDC4GAoz9nAy3bOvNsXEMDJs/9cXZ3ZTtAHCvr1qJj/0WoiBoiBrMSA9hhPu1sc6MwC/pfpPz1uA2Iqmca+MjyM+QFAxAAxQAwQA0XFwBeGhkr2nQ38TFcHnM60468q/MkbCFbSjdihvp7WP5W+qEqflRYO5aQ1TwysHwPac6we4sKbROTTqzwws7/2ishfXIh82sgIyR8AIAaIAWKAGCgpBr40POwKAB4Qkc7Muv6Kgh/jwvx3aWgo6YZDxetTMfqgDzFADGQpBnZy1wvw7yt8MJM/1ovIdhcAcMbYGADgGfXfNj9vvj4yYnQe7jt7evhCg9TEgMb0N0ZGzO3sQupdXj51ZMRVL8DtIlKdSefPF/o1Lsx/76Ym74IsS0S9uqyXTE2ZF7a1mbryclcVjeOKoEECNKgvLzf/0N7OniSeNU52a2hwVX9enlUAKBOR37gAgO/T+vcGgLSlX1VW5qpycdwEmJ6LOu77MXVjsvf29XlTT1dDe9Z+1y3kHcXcL7MKAM90IeiuPPv3IqnoCNuXtbe7qlQcF+P3IgZe3dnpRX3NmuEXKu/j3I0F0EXwMvc62wUAfJFV/7xIKG/v6fEiQbuIUY7J44iVMXAsPQFe5KzPuVsdMHObBM2JiC6GYNUERmtqWPPfg2drF09NmUq6/a3Gvu26xPHs5qb19NTHAZdPT3thgoVaxln5m+4RMFxd7aLeZm5hoOPXqxCl/u+D/f1UIg8A4LmtrS4qEce0DNSl1kM+Vzw86OOwrBipz+XU3hpH8f3RrDwDaBCR/7UtYmdlpdFpZD4HVxau/eb5eaMtHtv3n+MVbzpolhzNmisqzB1MEUx8/r51ft60V1S4yF/3iEhtFiDgQBeJ54ju7sQHTxYMfqMynuJuZS0XlZJj0qsQWQzoSPON6g//j38Rpjd1dbmKiRdnAQB+ZBsAtEV5zewslceD7n+HXWiuKiXHBQIiiYGPb9lCDvMgh6nXOOrF/EHaAWDCxeC/Azs6qDgeVBxtvRze3R1JMrUNmRwvOd3lab0X7+rpIY95ksde6mYK80MiMphmCDjWduUtEzEXTU5ScTypOA67zwALWupex4BOjaWLP/4u/iD34GdTU6bcTX17V1oBoFJEdO1jq5V03+ZmKo0n5q8VCwCwG/+26xPHi+/+AAB+mP8yIDylqcmql+Xr3k0iUp5GCHi2i+Si2zUu3xC+J78CAQDxGYyL+scx7d1PACD5+Wulx5w0NOQCAPSYT00jAHzLdrLoraoyujjDypvCz8muRACAPcOwXZ84Xrz3BgBIdu5a7S135nJmc1WVCwj4ctoAoFtE/mo7wbyFqX/ewQ8AEK/J2K6DHM/e/QQA/AIABYI3upkS+BcR6UwTBBxhO1HoAAyWz/SvwgAA9gzDdp3iePHeGwDAv3z2i+lpV4MBX58mALjadnLRARiru2T4PfkVCACI12Rs10OOZ+9+AgDJz1+FPGbPxkYXjwEuSQsAzLpIEjoAo9DN4G/JrkQAgD3DcFGvOGZ89wcASHbuWstbPutul8DRNEDAUbaTyqbKSrONwX9eAhAAEJ/B2K6HHM/uvQQA/AQA3cNB96JxUB/00bn3r1/ZFkYHXqxFY/w92ZXINgDsvPMu5tA3vokvNIg8BjT2bOY2ACDZuWs9b/nXTZusxkI+rn7uu/tP2qwgeixd+e/SqSkAwKPFf1ZWHNsA8JYj3mbuue+PfKFB5DGgsWczvwEA/gLAxVNTS95kMx7yxxrxGQL+3bYgezQ2Yv6emr+CAAAArKQF2AAAfw17ZaPE1s+7NDRYBcK8dx7mMwBcbhsAPsqOWV4DEAAAAAAAhccO0APgN1B8oL/fBQBc5CsAjNs2/6qyMnPd3JzXBmiLNn09DgAAAAAAAICv+Wu96752dtZUlpVNP+YbAAAgAElEQVTZhoCHfd0h8EjbAPA0Nv7xHn4AAAAAAAAA1jNSn/+3l5sNgt7kYy/AL2wDwCcHBrw3QJ+D28a1AwAAAAAAANjIJUk8xnFbttjuAdDj/cQ3ABgWEe26sCZGTVmZuZHuf+8BCAAAAACAwnmRMQB+jwFQILl+bs5Uu3kMsMUnCDjcpvnrsZ5O97/35q8VBAAAAAAAACCJrXdb1/RUN48BDvEJAM61DQDH0/0PABToUWIdAIAiLqBgGqD/LXZbpr/yOJ9w8xjgu74AQIOIPGgTALT7/ya6/wEAACDyxW7iMlcfzgsAAAArjX/5Z/Uq9SybHigi94tIjQ8QsJ/lgpv9W1pSYX7LAZLl7zwCoMXug7kHuUYAAABYK5frI2vbPigiT/EBAD5qu+D/PTgIAHi8+t/KSgIAAABBzNWH9wAAAMDK3Lby508PDLgAgPf7AADX2AQA7Uq5eX4eAAAAClYoTcI+mAXXmD7wAQAAgJWmv/JnfQygC9fZ9EIRuSLpADBkucBGF1ZYKSw/+13p6AFInxFmFW4AAL9zkWsv2b2x0TYA6NT6niRDwKttA8B/9PYCAClp/WuFAwAAgLQAAwAAAKwHEe/s6bENAHq8lycZAE61DQAXTU4CAADAmhWJRwAARVxAAQAAAOsBwAUTE2vmrRA+eUpSAaBCRO4NUbDHiNVXVYX5p8j86QHArOMyaxfnBQAAgPUAYPvCgumpqnqMr4X0yLtFpDyJELB7yII9Rqh/7ugAAACAx8TFyjijBwCocGHuQY4JAAAA6wGA/u+l7e3r5q+VuayInx+XRAA4uogCBBLllOFhAAAAWDdWAAAAIIhZu3gPAAAAbAQAJw4NrZu/SvTMf0siAPyoxMIUFEg3VPg90/9SB0AMAsSwXZhxHMcEAACAjQBAN7CrtD8d8OykAUCViDxgEwD2bGxMnfltFCxZ+D8AAADEYdYuzgkAAABBcvauDQ0FG7kh/PIPIqJj7hLzekKIwhQU52im/6USgAAAAMCFGcdxTAAAAAgCALrNs21/FJGFxLj/4uj/N9gu4IVM/wMACmz+szrONAnHkfw5JyADAAAAQQDgPDfTAV+TJAD4yurEHOb3jspKo1MogojLe/zSiR4AjDMt8AQA+JV74vIK9bK2igrbvQBfSBIA3BzG8Fd/9pns/pda+AEAAAAAQAqagXYVx2VSnNctzOxjf3fA3yUFAHpXG3jY33n+7zYY46zsAAAAAAAAAHHmoDjO7WgcQHcSIOCFYQ1/9ee/PzYGCaf0EQgAAAAAAABAHCYc5znPGBsr2Ouz2vuK/P3ZSQCADxV50esKodv/3p7LAQAAwLpxshxzDAIEKOICCsYApLen0jYs3DY/b3Rtm+W8Zen7e5MAAD+1VJglcXZpaMD8U2r+WqnoAcCw4zJs2+cFAACAYkBhp/p62wBwftwAUCMiD9oEgEO7ugAAACBwRaEHAKCwbexBjwcAAADFAMDrNm0KnNcCeqouvqeL8MX22iXghQYuOOv/p7tS0QOAYQc12KS/DwBId64qxtyDvPckN/sC7BSb+4vIa20CQJmIuXZ2lh4AegACAyM9AABFXKAAAAAAQYx/+T3qbepxNj1TRF4ZJwB8wmZhxmtqMP8Um79WBHoAMOy4DNv2eQEAAGDZ3IN+H6mpsQ0Ax8UJABfYBADdOzmokLzPz8oHAAAAto04ruMBAH7moDi94x/b220DwA/jBIDtNgHgfX19AAA9AEVVEB4BABQAAEYcp6kXc+5j+vqKym8B/HVbXADQF+DiiiqsLpZQjJi817+KTw8Ahh2XYds+Lz0A/uWfuD3j26OjRXliQI/dFAcE7Bvw4gIX+Pq5OQCAHoDA8aLxRw8AQGHb2IMeDwAAAIoFiuvm5orKbwE99klxAMBhAS8uUIH7q6sx/5Sbv1YWegAw7KAGm/T3AQAAQLEAoO/fXFUVyBOL8Nc3xAEAJxZxgRsWeN/mZgAAANgwTlbHHD0AAEVcoAAAAAClAMBTmpqKznOr896q34+PAwAuWXURoQqlLcNSxOQzflVCegAw7LgM2/Z5AQC/ck9SvOINXV2hvLKA7/4kagAoF5E/FbiQkgv2mcFBAIAegKLjhx4AgMK2sQc9HgAAAJQCFZ8aGCg6z23gtX8QkbIoIWB8gwsquoA/nZwEAACAouMGAAAAghq27fcBAABAKQBwwcRE0XkugN8ORgkAzw1wQYELqVsAb2ML4EwAEI8AMGzbRhzX8QAAAKAUALgjlzNV9rcGfmaUAPBmmwCQq6vLhPmVEixp+wwAAADEZdi2zwsAAACl5ueZ2trADeSAXvv6KAHgIwEvKlAhX9zWBgBkoPtfKwsAAADYNuK4jgcAAAClAsAL29oCeWMRPvvBKAHg20Vc2IYF/bfNmwEAAGDDOCkUc5qE4zIAzpttmAEAAIBSAeAt3d0l5btCOTD/t69HCQCXr3MhRRdMR0WWKiSf86sS0gOQbdNMEzQBAH7lniR5xce2bCnaJzfw3J9HCQD3bXAxRRXuO+wBkBkAAgAAgLRAAAAAAJQKFafb3xPgrqgAoNmm+euxrpqZyYwBlhowafkcAAAAAABSsIH09p4e8mBGHoVePj1dMAZCemtDFBCQC3mRjyq4TgG8OyM3PS0mHqYcAAAAAAAAAGFySBo+e5ebqYDTUQDAs20CwGhNDdSbIQACAAAAAAAASIOJhy3DYHX1oxrDFnz1GVEAwCEWLvSRgj+pqQkAAAAeiYdiY4tZAABFXEDBGADGAISBgD0aG0vOe2vkyddGAQA639DahR/U0QEAAAAlxxMAAAAAABhxGCOO67Mva28vOe+t4cHHRgEAOt/Q2oW/g4EvmQIgHgFg2HEZtu3z0gMAeISBhyM3b7bmo3lP/nIUAKDzDa1dOLsAZqsSAQAAgG0jjut4AEC2clcYsy/02U/b3xXwp1EAwC02AeCs8fFMtYALBUKW/gYAAABxGbbt8wIAAECY3P29sTFrDem8J18XBQA8aBMArmQNgEwBEAAAANg24riOBwAAAGEAwMFaALpAn9NXq03z12PdNj+fKQMMEzBp+CwAAADEZdi2zwsAAABhcvLN8/O2ewAeFpFKlwQwYRMA6srLMf8MzQDQygIAAAC2jTiu4wEAAEAYANDP6kJ4Nj1VRDa5BIAn2rzY/upqAAAACFUBNAnHZQCcN9swAwAAAGEBoKeqKlT+K+DHUy4B4LkFTlhyAebr6gAAAKDk+NFYBACybcJxQhgAAACEBYDZ2tpQ+a+AH+/uEgAOLnDCkguwN6sAZg6AeASAYcdp2jbPDQAAAGEBwMFqgPu7BIA32wSA57e2Zs4AwwaM758HAAAAmyYc57EAAAAgbD5+TmtryQ3oNbz4IJcAcPQaJy2pEK/s7AQAeARQUuwsxyGPAACKuCAAAAAAwgLAwR0dofLfch5c8f0wlwBw3IoThb7wI7q7AQAAIFQcAQAAAACAEYc14rg+f1h3d6j8V8CPj3EJAJ8vcMKSC3BsXx8AAACUHD8aiwAAAAAAAABxGXjY876ntzdU/ivgx592CQCnFThhyQU4fmAAAAAASo4fAADzj8v89bw8AgA8wgLAp+zvB6Cb9Tl7fc8mAHx1ZAQAAAAAgPsw8jiNvNRzAwAAQFgA+PLwcKj8V8CP1aOdvc4pcMKSC3D66CgAAACUHD/0AAAOpZq3jc8BAABAWAD45uhoqPxXwI/Pd+b+IvLjAicsuQC6G1JYAfm8X5WQaYCYtg3zTcIxAAC/ck8SveJM+zsCXuwSAPTgJRv+6s+ew1bAmQMgAAAASIJ527gGAAAACAsVZ4+PW/PTvL9e6RIALl9t4mF+//HkZOYMMGzA+P55AAAAsGG+STgGAAAAhM3HF0xM2AaA61wCwNVhDH/1Zy+emgIAGAMQqgJoEk6CGXAN2QMbAAAACAsAF01Ohsp/qz1VRG53CQBKF9Yu+JfT0wAAABAqngCA7BlvUmALAAAAwgLAL6anQ+W/An58t0sAuLnACUsuwNUzMwAAAFBy/GgsAgAAQFxAAAAAAGEB4MqZmVD5r4Af3+sSALYVOGHJBfjt7CwAAACUHD8AAOYfl/nreQEAACAsAFw7Oxsq/xXw4/91CQBKF9Yu+Pfz8wAAABAqnugBAALiggAAAAAICwA3zs2Fyn8F/Ph+lwDwpwInLLkAt+dyAAAAUHL8aCwCAAAAAIARhzXiuD6vHmjTU0XkQZcA8FebF7s9Y+YXV5Al6bxMA8Sw4zJs2+elBwDwCJtb715YsA0AfwMAAIvE9qwAAACAbSOO63gAAAAQFgC0EWyzUS0iTgGARwDARSi4AAAAgLgM2/Z5AQAAICwAbLP/COABlz0ADAIEAAAAdu9j8SVmAYTKA2GNMy2fv3V+3nYPgNNZAEwDBABCVXx6AOgBsN0Sj+t49ADQAxAWRBzMAtjusgeAhYAAAACAHgB6AOgBCJUHwhpnWj6va+FYHgOgjXRnL6tLAV/GUsCZq0T0ANADEFeL3fZ56QGgByAsiPzGPgDc4sz9ReTXNmmFzYCyV4EAAADAthHHdTwAIHv5K6zhr/78r+wvBXyDSwBgO2AeAYTqtQAAAIC4DNv2eQEAAGC1oRf7u4PNgK51CQAX2+wBOGd8PJSZFCs274+/wgIAAIBtI47reABA/PnE95zuYDvgq10CwI9tAsD3xsYAgIz1KAAAAEBchm37vAAAABAWQH4wPm57EODPXQLAOTYB4NujowAAABCqAmgStp3YOR6QEiQGAAAAICwAnDoyEir/FfBj9Whnr+8VOGHJBfjqyAgAAACUHD8aiwAAZh3ErF28BwAAAMICwBeGhkLlvwJ+/C1n7i8ipxU4YckFOH5gAAAAAEqOHwAA83dh7EGPCQAAAGEB4ONbtoTKfwX8+CSXAPC5AicsuQDv7esDAACAkuMHAAAAgpq1i/cBAABAWAA4pq8vVP4r4McfcwkA/1XghCUX4C3d3QAAAFBy/AAAAIALYw96TAAAAAgLAEdu3hwq/xXw42NcAsBRBU5YcgFe0dkJAAAAJccPAAAABDVrF+8DAACAsADwhq6uUPmvgB//m0sAeGOBE5ZcgOe1tgIAAEDJ8QMAAAAujD3oMQEAACAsABzY0REq/xXw49e5BIB/LnDCkguwV1MTAAAAlBw/AAAAENSsXbwPAAAAwgLAM1paQuW/An78Ty4B4LkFTlhyAebr6gAAAKDk+AEAAAAXxh70mAAAABAWAHaqrw+V/wr48TNcAsBuBU5YcgH6qqoAAACg5PgBAACAoGbt4n0AAAAQFgAGqqtD5b8CfryDSwAYK3DCkgtQW14OAAAAJccPAAAAuDD2oMcEAACAsABQV14eKv8V8OMelwDQXOCEoQpw6/w8EJAhCGAvAEw7qMEm/X0AAAAQBgBumpsL5Z0FvPhhEalyCQB67AcKnLjkglwxPQ0AAAAlx48m4aQbBdeXTugBAACAMABwydRUyXlvDQ++27X56/F/v8bJSyqM7oYURkQ+61clpAcgnWaYRcgBAPzKPUnziu+MjZXkmev471VRAMDF61xA0QU6YXAQAKAHoOi4WY5BegAAirjgAwAAAMJAxYn2NwJyuhPgMlx8fTn52vj+jp4eAAAAAADuw8jjMvJSzwsAAABhAODo3t6S894a3nvKskm7/P6BNU5eUmF0JaQwIvJZvyohjwAw+lINN2mfAwD8yj1J8wpdCt+ml4qI7tXj/HWIzYt+EqsBZgqAAAAAIGlGXur1AAAAQBioeFpzs20A0KX6nb/2twkAIzU1mTLAMAGThs8CAABAqYabtM8BAABAmJw8WVtrGwCe49z9RSRnEwCqy8rM3Rl6Bh4mYNLwWQAAAEiakZd6PQAAABAmJ9fbXwRoIQoAsL4Y0FUzM/QCZASCAAAAoFTDTdrnAAAAoFQAuHZ21nbrX4/XEgUA6Dnus9kLoPMhSxWSz/lVCQEAACBpRl7q9QAAfuWeJHnF2ePjtgHg3qjMX8/zS5sA8KmBAQCAHoCSKoQm4VITOJ8DRsLEAAAAAJQKFZ8dHCwp363ju5dFCQDfWudCii7Yv23eDAAAAEXHjcYgAICJhzHxMJ8FAACAUgHgiO7ukvLdOr57apQAcNw6F1J0wV7U1gYAAABFxw0AgPmHMfCwnwUAAIBSAeA5ra0l5bt1fPfDUQLAm9a5kKILNl9XBwAAAEXHDQAAAIQ18TCfBwAAgFIBYMr+FMDXRwkAOt+wpIRd6HM1ZWVmWy4HBGQAAhgEiGmHMd0kfRYAAABKAQD1Op3+XsgLQ/ztyVECwFiICy1Y8AsnJwEAAKBgbKwXa5qEk2QKXEt2AAcAAABKAYCLJieLznPr5cD8/zZHCQDlIvKnABcVuKDHMxMgEwBED0B2DDLtMAQAAAClAMDn7e8CGOkUwGXQ+LlNAHhjV1cmDLCUgEnTZwAAACAtYAAAAACl5Oa3bd4cuGEc0GN/vGzKUX7/XMCLC1TYfZqbAQAeAQSKlZVxxyMAgCIuoAAAAIBSAOB59mcAnBCl8S+f67CViTjsz31VVQAAAAAA3Iehx2XoxZ4XAAAASgGA4ZqaovPcBv4ayS6Ay8a//P1pG1xU0YX83ewsEJByCOARAAZfrNEm9f0AAABQLADcODdnyizOoMt7sHpx5K9e2wBw+ugoAAAAFAWOPAIAKOICBAAAACgWAL41OlpUfgvosf2Ru3/+hNsDXmCgQh/b1wcAAACBYmU57gAAAAAAwIiLNeK43n90b29R+W05z63z/R4RKYsLAM5f58KKLuhL2tsBAACgqLgBAAAAAAAAiMvQiz3v8+0PADw7LvPX837cJgCM1dQAAAAAAMBAQC8Wd+IRAOBRLAA4GAD43jgB4LU2AUAHR1zLQMBUQxCDAGmxx9Vit31eAAAAKAYAHA0AfGGcALCzTQDQY31xaCjVBlhMwKTxvQAAAGDbiOM6HgAAABSTo7/pZgDgSJwAUCUiD9iEgENYETDVAAQAAABxGbbt8wIAAEAxAHBEd3dRjzcD+KouARzbAMBl8PhJgAsNXPAnNDSk2gCLCZg0vhcAAABsG3FcxwMAAIBicvQejY2BfTCgp561bMJxfv9AwIsNVHjdGvh2tgZOLQQBAABAXIZt+7wAAAAQFAB0C+D68vJAHliEn8Y6AHAZOl5QxAUHEuA7Y2OpNcCgAZPW9wEAAIBtI47reAAAABA0T581Ph7I+4r00gOWTTjO7z1FXvSGQryrpwcASOl0QAAAAIjLsG2fFwAAAIICwFE9PRv6Xgk+qqvxJuJ1UwkXv6YgT2dnwNQCEAAAANg24riOBwAAAEEBQD3NpkeKyHWJcP78RXzJZuHaKyrM9pS2gIMGTFrfBwAAAHEZtu3zAgAAQJA8rV6mnmbTI0XkxCQBwCGWC2d+PDmZ2lZwkKBJ63sAAADAthHHdTwAAAAIkqcvmJiwbf56vFckCQB2sg0A+swkiLi8x69KCAAAAHEZtu3zAgB+5Z64vMLR8//xJAGALgh0v00IeGJjIwCQwscgAAAAYNuI4zoeAAAABIGKPe3P/9+WJPNfvpYLbAJAdVmZ+f38PBCQMggAAACAuAzb9nkBAABgIwC4dX7e6No2Nr1RRL6xbLpJ+n6U5UKak9kXIHUABAAAALaNOK7jAQAAwEYA8NWREdvmr8d7Q5KMf/ladrUNAAd2dKTOADcKmLT/HwAAAOIybNvnBQAAgI3y9Ws2bXIBAAvLppuk7xUico9NCOitqgIAeASwbgXSJGw7sXM8ICVIDAAAAMBGADBRW7tu/irBL+9IwgZAa4GHPpuwWuCfMh0wVRBEDwDmGsRcfXgPAAAArAcAV87MWPXCvLd+YS3zTcLfX2UbAN7d25sqA1wvYLLwPwAAAPDB3INcIwAAAKyXsz/Q3+8CAF6aBKNf6xoGbQOATqFYT2T+51clBAAAgCDm6sN7AAC/ck/UXrF3U5NtAHhYRLrWMt+k/P03NiGA6YDpqmQAAADgg7kHuUYAIF25ySYg3DA3Z6rsT/+7LCkmv951fMQmAOixPjM4SC9ASgYDAgAAQBBz9eE9AAAAsBY0fGpgwHbrX4/33vWMNyn/e5ZtAHhWSwsAAAAUrFCahH0wC64xfeADAAAAawHAfi0tBfNVSG/cOykmv951NIjIgyEL+ijxdCWlm+bmgIAUQAA9AOkzwqzCDQAAABQCgNvm5019efmjPMyCH/5RRKrXM94k/e8cCwV+lIDapVJIbP7mVyUEAACAtAADAOBX7onKK3QFW9v+JyJfS5LBb3Qth9kW4OnNzQAAPQCPqVg8AgAo4gIKAAAAKAQV/9De/pg8ZcEPX7KR6Sbp/0MiolMWrAmhswGu4zGA9xBEDwCGHZdh2z4vAAAArAaA23M501JRYc338h76VxFpTZLBB7mWS2wCgB7r41u2eG+AqwMma78DAACAbSOO63gAAACwOn9/bnDQtvnr8b4XxHCT9p632QaApzQ1AQCePwYAAACAuAzb9nkBAABgNQA8w83of11h17vXiG0A0IUVfjc7CwR4DAEAAABg24jjOh4AAACsBIDr5+aMzliz7HsPiUiPd+6fv2BduciqIMfxGMBrAAIAAIC4DNv2eQEAAGAlAHzYzdr/F/pq/nrdR9oGgCeyNwAAsAIqNQnbTuwcD0gJEgMAAACwEgB2a2iw2tjNe+fhPgPAhG0AKBMxl0xNeW2CK4Mmaz/TA4C5BjFXH94DAAAAy/n7iulpU76iYWLJ93Qmnc6o8/p1hSUxHqGrQ7u6AABPxwHYBoA999rbvPNd7+YLDSKPAY09m7nt7T095DVP85reO5uxkD/Wj712/vzFv8O2MJsqK822XI7K4mFlsQ0AtmOL49kds4OewfUEAPzsUdi+sGCGq6tdAMBr0gAAky6SwBeGhgAAAMBFpeOY9rsy0TSApgCAnwDw9ZERF/Gti/90pgEAtAxX2oaAJ7MmgJcARA9A8Bah7TrD8ZKtPQDgJwA8283c/9PTYv5ajrfYTj464OKX09NemuDywJEsfgcAkm1Ctuspxwt+vwEA/wDgmtlZo+vTOIjzF6UJALoXpwRql4ZVoQ7v7gYAPHsMAADYrQO26xTHi+/+AAD+AcA73Az++4OI1KcJALQs37SdXHqqqsxdDAb0CoIAgPgMxnb943h27yUA4BcA6OC/kZoaq43afJ36fNrMX8uzn4uEccrwsFcGmMVu/5VlBgDsmoaLOsUx47lHAIBfAHCam8F/ChRPSSMAVIrIbbaTy77NzQCAR48BAIB4zMV2veN49u8jAOAXADy9udlF6/86ESlLIwBomd5rO3HoyoAXTU4CAZ5AAABg3zhs1ymOF889AgD8AYBLp6ZcrPynQKG76Kb2NS4iuryhVXI6sKMDAPAEAHTgpu37z/Hs1if0jEfPd7ESoDd5/F86O13kMR0ovzm17p8v2I9sJxjdgvE3bBPsReV5X1+fi4rDMS1Dte06yvE2hopPDgx4UYdXjunJ4s83zc2ZpooKFznnG2k3fy3fgS6SwVuYEuhF8vjS8LCLisMxAQDvY+D00VEv6nAWTX9lmd/d2+sq1vbNAgDUich9tiGgraLC3DI/TwVK+KOAm+fnjfbY2L7/HG/jFiYaJVej5ooKcwdTmhOfv3Xa+aCbdf9/LyIVWQAALePxLpLRB/r7Ex9AK0kyqz8/r7UVAKDFTgysiIF/am8ndyW88aL5+sShIVdx++9ZMX8t57yLwYC6KMPdHgRRVo1/udwXT02ZSnoBXCUSjrvCWF00NGwfU3vEfjUzAwB4kLt3qq93Ub908F9vlgBAy3q27YqkxzuZXQK9SCSOltB0UTk5pmeG6iKvuDzm+/v6vKizywCf1e8OF/45JWvmr+V9potKtXNDA5XJA5LWZTS129NFDHDM5D7r5t48+t68urOTfOVBvlLo2b2x0VW+enwWAUBXO/q1i4TwvbExKpUnleqdPT2udtNyVVk5Lj0CoWNAu/2PpeXvTZ4+c2ws9D1fw+suzKL5L5f51WuIEkrsvZqavAmsrHanrSy3rqr1wrY2U1deHuq+u4gljvnoFit6hNOjvrzc/EN7O1uZe9JAWc5TT25qcpWbXrhshln8rlse3u0iqTCn1p9lNZcr2W3z8+brIyPmQ/395ojubnNoVxdfaOB9DGgsf7i/33xjZMTczlQ/7xpnZ4+PuzL/G7M09W8twPlPFwDAWAD/AGAZBPjOvSMGiIGkxICjTX8UKt68lilm6e89IvIXFxCgxJ2UIOI6SGjEADFADPgVA+dPTBjdcM6BP/1BRFqyZPTrlfULDgQ2O9bXAwCePWsjQfqVILlf3K80x8A+brb8VaD4yHqGmLX/OVkYSKFC155Pc4BSNhIwMUAMEAP2Y+A77kb+68I/g1kz+Y3Ke66LXoBcXZ3ROedUEDQgBogBYoAYCBoDuzQ0uOj612OesJEZZvH/T3IBAHrMz7M6IAAEBBIDxAAxEDAGHO5a+ncRGc+iwQcp83kuIGCqtpY9AgIGflA65n20pIgBYiCNMaD7yczX1blq/et4N15rKLCXCwDQY35iyxboFwggBogBYoAYWDcGjh8YcGX+D4nI9Brex5/zCjgZC9BdVWV0L/o0EitloiVGDBADxED4GLgjlzPD1dWuAOBruPzGCuzuqhfgjV1dAAD0TwwQA8QAMVAwBo7q6XFl/nrcHTe2P96hCvzQBQToBhyXTU8XvPHQc3h6RkM0JAaIAV9j4NrZWdNcUeEKAL6NtQdXYDcXAKDH3L+lBQCA/okBYoAYIAYeFQMOtyfXZ/8Lwe2Pd6oCZ7uCgFNZIvhRge8rsXPdtDaJAWLARgycNzFhKsrKXLX+T8LSi1dgV1cAoNMC72RXLiCAFhAxQAwQAwsLZjd3i/7oqn+jxdsfn1AFfuAKAnTLWRvkyDFogRADxAAx4G8MfHZw0CxdQtAAABltSURBVFXLX4/7May8dAUeLyIPu4CAzspKc8PcHBBAC4gYIAaIgYzGwK3z82aLu2l/fxIR3e2WVwgFvugCAPSYr9m0iYqf0YpPi83fFhv3jntnKwYO7epy2fp/Twjf46N5BfpEREnK+o3SQR/njI8DAUAAMUAMEAMZi4ELJydNlbuBf/eJSDsubkeBd7sAAD3mXF2d2caAQJJfxpKfrRYUx6E17mMM6Hr/T3A38E8bq4fbsT6OogrUi8jNriDgHT09GCAGSAwQA8RARmLgg/391nuUV/jTdSJSg3XbVeCgFQJbvXm6QuBFk5NU/oxUfh9bLFwzLW1iwE4MXDM7a1rdrfin3rSfXevjaKpAuYhc4goCdB7odgwQCCIGiAFiINUx8PzWVqsNyFWepAvY8XKkwJ6rxLZ6Iz/M2gCprvi0oOy0oNARHX2NAV0F1qGH6KI/M468j8PmFTjV1Q1sqqgwV83MYIK0gIgBYoAYSFkMaA/v4+rrXQLAcbi0ewV0WcUHXUHAs9gsiMSXssTna2uN66anwWYMOG79bxeRNvf2xxlUgfe7AgA97olDQ5ggJkgMEAPEQIpi4NWdnS5b//+KNUenQKOI3OQKAjoqK83VPAog+aUo+dlsSXEsWuY+xsAO7rr/LxWRiujsjzOpAs9wBQB63L2bmpgVgAECQcQAMZCSGOh3s+b/30VkRyw5HgW+7BIC/rO3l8qfksrvY4uFa6alTQzYi4GeqioXjwD+Kx7r46yqQLeI3OsKAnSBoAsmJoAAIIAYIAaIAc9jYEf7jwB0ddomrDheBV7hCgD0uFO1tea2+Xkqv+eVn5aUvZYUWqKljzFwcEeH7R6A58RrfZxdFSgTkfNdQsArOzsBAACAGCAGiAGPY+DrdhcB+ib2mxwFJkTkz64goEzEnDI8TOX3uPL72GLhmmlpEwP2YkB3AJyvq7PRC/AHEelPjv1xJarA210BgB63s7LS6CYSVEh7FRIt0ZIYIAaijAHtBdAGXUiveC2WmzwFqkXkqpA3dt3AeGpTk1GKjDJgORd6EwPEADFgLwaO6O5eN89v4CEnJs/6uKJlBXYTkYc2uIFhbr556+bNAAAQRAwQA8SApzGgewK8ubu7lJ6Az4qINjR5JViB97kEgPLFmQFfYTwAyc/T5EdL0l5LEi391XL7wsKDT21uPkREfhvAL24TkYMT7Hlc2goFlNAuC3BTS+4JaK2oMJdOT2OCmCAxQAwQAz7GwNatb8x7RqWIvFhEvigiN4rIAyKi2/rqUvM60v+gxb1n6lf4Cz96oMB0/kaWbPIbAcRsba25hfUBSH4+Jj+umbjNdgz80IiUe+BjXGIIBbR7xxkA6LFf0NpKIsl2IuH+c/+JAb9iYNvdO+zQG8JX+KgnCugCQWe6hoBj+/pIAH4lAO4X94sYyGYM/O2+HXbYyxP/4jItKNAlIttcQkBVWZk5Y2yMhJLNhMJ9574TA77EQC53uAVP4RCeKaDrNTt9FLCpstJcNTNDIvAlEXCdxCoxkKkYuDeX+5b5v2XjPbMvLteGAie4hoDH1debWxkUmKmkwjQwf6eBce8yde9+e++OO7bYMBKO4acCDSJyrWsI2Le52dyVy2GCtK6IAWKAGEhGDDxw39atW/20La7apgJPyM/vdPo44LWbNlHxk1HxuQ/cB2Ig4zGwfevWA22aCMfyWwHnUwO1l4GZAZnqXsRkMm4yPE5IZn2/d2Hh437bFVfvQoHPu34UoMsFf3FoCGPAGIgBYoAYiCcGLjZjYzUuDIRj+q1AneulghUw6srLzVnj41T+eCo/uqM7MZDdGLjjnrm5LX7bFFfvUoExEbnPdU9Ad1WVuZw9A0jE2U3E3HvufdQx8Od7dthhV5fmwbHTocD+IvKwawiYrK01N8zNRV0JOB+JlxggBrIWAw/fu3XrS9NhT5QiCgXe4xoA9PhPbGw0t7FGQNaSEeXFgImBaGPg6ChMg3OkRwHdEep7UUDAk5qazO2sEUBCjDYhojd6ZyUGvsZKf+kx5ihL0i4iN0QBAc9qaTF3AgFZSUiUE/MlBqKJgYtv33HH+ihNg3OlSwFdKeqBKCDgRW1t5u5oKgXJB52JAWIg1TGwfevW67blcrrpGy8UCKXAQVEAgJ7jnzs6zHYSU6oTE4vDJHNxGO5L8u/LtlzOXD83FyRH3n3X1q3jobI+H0aBFQq8OyoIeD1LBgMAQCAxQAwsxcA3RkbMS9rbTW9V1SNLtVeUlZnRmhrz6s5Oc97ExOpYeYDpfiucix+tKFAmIqdEBQFHdHevDmp+JyESA8RAZmLgp5OTZteGhkdMf63cWyZintPaaq6dnVVt/nZvLqfTuHmhgHUFdPnIC9YKRNt/P7q3NzOVne7X5He/co+4R1HFwFeGh01TRcWG5r8y5/ZXV5uPDQwcZT3rc0AUWKFARxTbB2tgK9kCASTdqJIu5yHWkhADpwwPm8qysqLMfwUI3CkiAyvyNT+igHUFdLngu1cEXanBGuhzPA4gMSchMXMNxKHrGLhwctI0lpcHyovr5N+LRUTXceGFAs4UeIKI3L9OEIYN4kd9/hWdnUFGvvLIgGfExAAx4G0MPD7AM/+AOfcfnGV+DowCeQVeHMWeAcsBr1MEWSeAVpjrVhjHJ8biiIEvDw8/qtGznPdK/H4RLoUCUSjwthIDtKRg18WC7mLFQG9bOHEkVs6JofsQAwe0tZWUE9fIvw+JSHcUBsA5UOBTawShzYB+5Fj7t7SYO4AAIICubmIgRTHQWVn5SI6zlE/3wZpQIAoFdMDJyZaCNlAl2Ke5mV0EU5T8fGihcY30JLiKgVvn5wPlvSJz7MujSP6cAwVUgUoRObXIAA0V9Ls3Npob5+ZoBQECxAAx4HUMXD0zEyoXrpF3X4I1oUCUClRHtYXwcsBP1daay6enva78rloVHJcWKzHgRwzodui67slyXrP0fe8okz/nQgFVoE5EzrcUwIEqRHdVlTn3sethAwW0CokBYsCbGOhbsda/hfz5oIg0YkkoEIcCTSLyMwtBHAgA9Dz15eVGV9CixeNHi4f7xH0iBh4dAwd2dATOdwFy63fjSPycEwWWFWgTkcsDBKq1oNcdst7X1wcE0OojBogB72Lgu2Nj1nKhiOyxnIj5jgJxKdAlIr+JEgL0XK/dtIkFgzAA7wyAFvGjW8RZ1ONpzc02IOBrcSV8zosCqxXoF5EbooaAZ7W0GJ1ak8UkQpkxEmLAzxi4cmbG6JimEPnyKhHRR7C8UCAxCgyLyE0hgrqkCrFjfb359cwMEEBvADFADPgSA39/X1/ff4rIPSXkyytFRBtcvFAgcQoMish1JQR1Sea/fB6l6e+MjflS+blOjIoYyG4M3H93LvfsfObWHVevWM5jAb5/nVH/ifM8LmiVAkqn1wYI5lCmv/r4VWVl5r0MDsRYsmss3Puk3/tcbvu9W7fuvipfViz2nB4kIr9cndPyv/9VRM5anHbNfP9VwvFrchXoEZGr1whoq8a/+hy62QbjAvx8Nsozbe5bimPg+rsXFiY2SNnaeNpPRA4WkQNF5Gki0rLBZ/g3CiRSAZ0dEOkUwWUYmK2tNZeyciAtwqS3CLm+rMToz7blcpoPeaFAphRoFZEfLxtzlN+bKirMSUNDWUkwlBMzJQaSGQPfuGXXXXXlVF4okEkF6kVEV6xy2vVf6Pi67vahXV2sF5DMxIhhcV/SHgMfMSK6iyovFMi0ArqB0JcLmXQUf3tKU5O5ZnY27cmG8mGoxEACYmD7wsKD23M5tunNtOVR+NUKKAl/MgrDL3SOzspK8yX2EcAgEmAQKR7oRnzlctvvm5/fc3Xy43cUQIH/U+BQEXmokElH8bcXtbWZW1g9kEQNCBAD9mPg0vt22EHXQuGFAiiwjgLPF5H7ozD8QueYqK0157G1MAZg3wDQNKOa3ruwcBKD/dbJ+PwLBVYpsLOI3FnIoKP4my4cdER3NwMEM5qw6YZnzQFLMfDne3K5V67KbfyKAigQQAHdP+DXURj+WufYs7HRXMVeArRcASFioMgY2L5163X37bDDQoA8x1tQAAXWUKB9cZnL89cy6Cj+3lFZaU5kzQAMoEgDsNSCRHcPdd++sHDG/8zPt62R0/gzCqBAEQrUiMjJUZj9eud4ZkuLuZreAAzJQ0MCRoI90jhzbMy8oavL7NzQYEZrasxgdbXZtaHBvGbTJnP66KjZvvG9//s9W7cexfz+IrI7b0WBAAqUicjRIvLweibt+n/NFRXmQ/39QRIBRrlxskQjNEpEDHx3bMzs0tCw4WJkW+vrzRlr7yx69z1bt+4TIJfxFhRAgRIV0AU0/uza6Dc6/m4NDebnU1OJSF607oK17tAJnVbHwHVzc+Zl7e1GVwXdqM4v/7+irMwc3dv76Lq/desF2xcW+krMaXwMBVCgCAV2Wtwi86blChnX95qyMvP2nh6zLZd7dDKgVYcexECiY0C78j81MGB0AbBS88e7enq0jH9d6vI/4ADdtpcXCqBARAp0iMgPSq28Nj83V1dnfjg+nuiEt7rlw++0hrMaA9pzt0djY8nGv5w7ykXMAW1tr4oo33EaFECBVQoodf9H3OMCNCFot+CrOzvNDXNzgACtX2IggTFwey5n3rZ5s9Geu2UTt/D9l4tjk3R8Ei8UQIGYFNhfRO6zUJlDJwadMvjB/n5zF48FMMEEmmBWW/2nDA+bkZqa0PV7jRyzX0x5j9OiAArkFRgQkUvWqKCuKv6axx2vqTFfGxnBBDFBYiDGGLh4asrs09y8Zj21lC9OIAujAArEr0B9EtYLWJlUntXSYn4xPY0JxGgCWW31ZrncOrr/Xzo7TaXd7v61QOI38ac+rgAFUGBZAR2Y85eVRhznz7qvwKs6O81NjA8AhAAhpzFw98KC+WTI0f0l5Ip7lxMP31EABZKhgE4VvKaEyrwW5Yf+e3dVlfnYli1sMIQJOjXBLLb8dVrfF4aGzGRtbeh6WkLO0J1LeaEACiRMgToR+UgSZgmsTCq63bC2UhgoyFS8LJq17TJ/Z2xsabnelXUs4p+vTVje43JQAAVWKKCzBGLbWnitZKTrB+jo5ADri9NipNeAGFgVA2ePjxvdrXOt+hXh37++ItfwIwqgQAIV6BaRMyNMCoET0w719cwYWJXcbbcSOV56elt+Ojlp9mtpKWr5Xsf1/qUJzHdcEgqgQAEFdC+BPzlOCIHNf+V1PL6hwZzG1EFausBQwRj48eSkeVFb29KiWyvrTcw/3yoiOvuIFwqggCcKTInIpTEnjjUhQZcp1eeatFrT02rlXpZ+L88aHzdPb25OUot/Zd3VBgUvFEABzxSoXLzeo0Tk70kFgYW6uqXBgneyqiAwlMFeAYXgfd0v4rPSzIv9+XOe5TwuFwVQYJUCO4vIFUmFAL2u4Zoa8/6+PnPr/DxGmEEjzFLvgc7j/+LQkNmloaFYM476/SeKSNWqXMKvKIACHiqgFfnfROSBJIOA7jNweHe3uXZ2FhAABFIVA7+fnzfv7eszw9XVURt5sef7o4i8zsMcxyWjAApsoMCIiJyVZAjQa6suK1saDKWjobPUOqSspT9HT6p2l01Pm0O7ukxrRUWxRhzH+88QkcENcgj/RgEU8FgB3drzIBHZnnQQ0P3In9bcvLSWAIsKpc8ck2raYa9L1704fXR0aSqfbqOd9HomIjrS//ke5zQuHQVQoEgF2kXk+KStIrhWstRlhrUlxcZDgEBYg3b1+evn5syH+/vNdDzL9ZYCGg/lc0BzkbmDt6MACqREgb1FRJf6LCWBRP4Z7RXYq6lpafbAbQwa5BFJAsZKnDsxYQ7s6DC15eWR14cQ9fZyEdEBwrxQAAUyroAu9HGMiPw5REKJPPl1VlaaQ7q6zM+npjDCBBihq5Z1Eo975cyMeUdPz9IMFp/qjIjcs/j47/UiotOEeaEACqDAIwoMichXfXkssJx4y0TMbg0N5kP9/ea3zCAAhhzBkHbxH7dli9m9sdFoT9Ry/Hny/W8i8jER0Ud/vFAABVBgTQWeICI/8SSxPSoR66CrnRsazDF9fUwndGSESWyRu7qm23O5pUGoukRvnV9d/CvrxTkiMr9mbecfKIACKLBKAZ0t8E8icouPIKDXrNMJdRaBbk1849wcLWOAIFAM6NgS3cXyH9vbTbMf0/dWmv3Kn38nIs9eVa/5FQVQAAUCK6DjA3RJ4URuMBQUTmrKyswzWlrM8QMD5iZgIJARumpVJ/G4N8zNLcXGs1taTL2/Lf1l879XRN6yOK6nOnAt540ogAIosI4C/SJykm/jAwoBQlVZmXliY6N5V0+P+RGLDWUWBnQgn44beXJT01JvUaFY8exv9+cH87atU4/5FwqgAAqUrMBOIvJdzxLjcsuo4PeeqirzT+3t5vNDQzwqSPFjAt1r4msjI+a1mzaZSX/m6heM2VX1768i8onFOf09JddqPogCKIACRSiwi4h8f1UiCpKsEv2eyrKypRkFOsXr/IkJo5u3JLHLmmva+L7oinzaw3N0b6/Zu6nJ6GOglMWrLuTzxcWeOV3imxcKoAAKRK7Abj7sL1Bq4tc13HUg4dt7eswZY2OGxYc2Nt644ES3lT5rfNy8u7fXPL252bT7PYBvPVh5WEROF5Fc5LWdE6IACqBAAQV2F5Eflmq0vnxOxw88vqHBvG7TJnPy0BBTDWPsIdGZHd8cHTVHdHebPRsb0zB4bz3T1/9pi//rIrK1QP3jTyiAAigQuwJ7iMi5vhi6jescralZmjKm271+e3TU/I7FiKw/NlGzV221O//5ra1mpKbG6AJQNu6fB8fQRXxOFpGZ2Gs3F4ACKIACARTYKws9AmuZx+aqqqXR5W/o6jKfGhgwF0xMmDtyOevGGFd3u6vzbsvlzEWTk0sDMo/cvNk8L3tmvxJq/iIin100/9EA9Y23oAAKoEDiFFhY3GP8RBF5cC2zzMrf9fHBTG2teUFrq3lLd7f5+JYtS9vGXj49bbK23fE1s7NLz+s/Mzi4pIXOv9eR+apRVuJhnXL+cXHJ3o+KyEDiajMXhAIogAIlKLBZRP5DRO5eJ/FlNvmr8Q1VV5s9GhvNy9rbjbZ+Pz0wYL43NmYUEG72aOdDXWjp4qkpc+bYmPnvwUFzVE+PeUVnp9mnuXnJ5D3bNS/KmLxpccGtw0WktYT6xUdQAAVQIPEK1InIq0Tk14BAcc+wdRqbPlrQXgTdkEZbzQd3dJjDurvNe3p7lx41fHVkxJw2MrLUs6Db1OrXz6amzC+mp81l09NGN7TRr9WzGZb/rt9/PTOz9H79zE8mJ80PxsfNqSMj5nODg+ajW7Ys7bOggKKPNxRWdMT9TvX1pr+6Oo1T7aIAAN134wB26Et87uICUQAFLCrwRBE5Iw2rCwIzxcEMesnf87Gv02h5oQAKoEBmFdCdyo4Xkf/FGDDSlMeAdvO/Q0R6M1vbKTgKoAAKFFCgNt8Veja9AoBAikBAW/sa03TzF6j0/AkFUAAFViuwRUTeKiLaYoriOSznQGfbMaBbaR/LaP7VVZvfUQAFUCCYAhUist/isqeniYhuemI7SXM8NLUZA3/I75q5j4iUBwtx3oUCKIACKLCRAl0icpiI/AoQAIQSFAMKpjqY9R9FpH6jIOb/KIACKIAC4RQYFpFDReTCBBmBzZYkx0p+z8Sl+RhUMOWFAiiAAigQgwLji48HjhSRy4ABegYcxoBuxvNTETlCRBRAeaEACqAACiRIgcEVPQO6bSotaTQIEwM6gl97mbS3qS9Bcc6loAAKoAAKrKOAttJ0adVz2IsAECoCBv8kIt8QkZexLO86tYt/oQAKoIAnCugSxE/NT8vSZ7dhWoV8Nn36XS8iH8nHiK5HwQsFUAAFUCClCujmRC9f3GP9ayJyL0CQOSC6K3/vdV+K/pTGOMVCARRAARTYQAFda2DXxfccJSI/Whzk9QBAkDoguDO/lsQbRWQHESnbICb4NwqgAAqgQAYVqBSR2fyuhSctLuF6NUDgHRDcnm/h6+C9HTH8DNZiiowCKIAClhTQEeAvFJEP56eC/QUoSAwU/E9+oOf7ReTFdOlbingOgwIogAIoUFCBGhHRrVz/VUQ+lX90wFgC94MDV5v9GK37gvHJH1EABVAABSJWQHsKnpaffniiiFwiIvfTW1B0b4Ea/UWLrfnP5rV8uogMYfYRRzOnQwEUQAEUCKWAbgqjLdXnisib8tPNvr34++WLC8zcl2E4+F8RuWJxUJ5qoVPw3iAiuokOo/JDhRsfRgEUQAEU8EWBlsUR6rnFpYyfnTfBD4nIqfneA91S9kEPIUEfh/xaRC4Qka+KyEdF5M2LGzk9X0Qet/h7uy83h+tEARRAARRAgTgVUEiYEJHd8z0JB+d7E45eXK3uuMXu8c+LyDcX/392fulaXezoGhHRBW6259c6UFPWr0JLJC//T7/fkf+cfla/9FjnLRr36SJyioh8Or+g0r/ngeWf81s2Pz7fetfxEbxQAAVQAAVQAAVQAAVQAAVQAAVQAAVQAAVQAAVQAAVQAAVQAAVQAAVQAAVQAAVQAAVQAAVQAAVQAAVQAAVQAAVQAAVQAAVQAAVQAAVQAAVQAAVQAAVQAAVQAAVQAAVQAAVQAAVQAAVQAAVQAAVQAAVQAAVQAAVQAAVQAAVQAAVQAAVQAAVQIMsK/D+xFrUdhgWHuwAAAABJRU5ErkJggg==;" parent="1" vertex="1">
            <mxGeometry x="415" y="320" width="100" height="100" as="geometry" />
          </mxCell>
        </object>
      </root>
    </mxGraphModel>
  </diagram>
</mxfile>
